<svg xmlns="http://www.w3.org/2000/svg" width="100.942" height="71.337" viewBox="0 0 100.942 71.337">
  <g id="Grupo_2178" data-name="Grupo 2178" transform="translate(-1468.501 -249.943)">
    <path id="Trazado_2845" data-name="Trazado 2845" d="M53.189-3.209a5.381,5.381,0,0,1-.972,3.014,3.45,3.45,0,0,1-2.139,1.41A3.727,3.727,0,0,1,47.549.778,5.4,5.4,0,0,1,45.41-1.556a82.942,82.942,0,0,0-1.653-8.994q-1.07-4.424-2.528-8.8l-25.768.194a2.253,2.253,0,0,1-.438-.049,2.253,2.253,0,0,0-.438-.049Q12.155-10.988,10.21-2.139A4.607,4.607,0,0,1,7.973.583,3.827,3.827,0,0,1,5.2.875,3.728,3.728,0,0,1,3.063-.875a4.905,4.905,0,0,1-.438-3.5,285.858,285.858,0,0,1,7.73-27.567,174.886,174.886,0,0,1,11.328-26.3,3.394,3.394,0,0,1,2.723-2.334,3.435,3.435,0,0,1,2.042-.146A3.485,3.485,0,0,1,28.1-59.8q.1,0,.1.049t.1.049a46.464,46.464,0,0,1,8.46,10.988q3.4,6.126,6.223,12.446,1.07,2.236,1.993,4.473t1.8,4.473l5.154-.1a5.25,5.25,0,0,1,2.723,1.75,3.68,3.68,0,0,1,.827,2.382,3.765,3.765,0,0,1-1.021,2.334,4.953,4.953,0,0,1-2.82,1.507H49.591q1.264,3.987,2.188,8.022A76.273,76.273,0,0,1,53.189-3.209ZM26.351-49.98q-2.723,5.543-5.008,11.28t-4.23,11.571l21.2-.194q-1.264-2.917-2.577-5.737T33.061-38.7q-1.556-2.82-3.112-5.737A38.6,38.6,0,0,0,26.351-49.98Z" transform="translate(1466 320)" fill="#fff"/>
    <path id="Trazado_2846" data-name="Trazado 2846" d="M7.293-1.556A2.314,2.314,0,0,1,6.636.122,1.934,1.934,0,0,1,5.3.681,1.884,1.884,0,0,1,4.035.17a2.457,2.457,0,0,1-.729-1.58q-.049-4.57-.073-9.335T3.16-20.08a2.85,2.85,0,0,1,.778-1.459,1.758,1.758,0,0,1,1.215-.486,1.9,1.9,0,0,1,1.191.438,2.455,2.455,0,0,1,.8,1.361q.049,4.57.073,9.335T7.293-1.556ZM2.82-28A2.624,2.624,0,0,1,3.5-29.828a2.146,2.146,0,0,1,1.653-.754,2.22,2.22,0,0,1,1.677.754A2.573,2.573,0,0,1,7.536-28a2.512,2.512,0,0,1-.7,1.775,2.22,2.22,0,0,1-1.677.754A2.146,2.146,0,0,1,3.5-26.23,2.561,2.561,0,0,1,2.82-28Z" transform="translate(1549 319)" fill="#fff"/>
    <path id="Trazado_2847" data-name="Trazado 2847" d="M11.018-3.129a3.1,3.1,0,0,1,1.369,1.923A2.535,2.535,0,0,1,12.093.652a2.649,2.649,0,0,1-1.5,1.108A3.038,3.038,0,0,1,8.28,1.434L7.106.652Q6.519.261,5.867-.13a2.955,2.955,0,0,1-.782-.978,5.628,5.628,0,0,1-.326-1.3V-38.594a3.321,3.321,0,0,1,1.01-1.891,2.524,2.524,0,0,1,1.565-.685,2.467,2.467,0,0,1,1.6.554A3.52,3.52,0,0,1,10.1-38.79V-3.716q.2.13.424.293A3.64,3.64,0,0,0,11.018-3.129Z" transform="translate(1557 319)" fill="#fff"/>
    <path id="Trazado_2848" data-name="Trazado 2848" d="M6.8-.831A2.74,2.74,0,0,1,5.141-.39,1.977,1.977,0,0,1,3.9-.935,1.977,1.977,0,0,1,3.35-2.181a2.74,2.74,0,0,1,.441-1.662L3.947-4V-31a2.646,2.646,0,0,1,.8-1.506A2.011,2.011,0,0,1,6-33.056a1.965,1.965,0,0,1,1.272.441,2.8,2.8,0,0,1,.935,1.454V-18.8a9.475,9.475,0,0,1,2.441-1.714,9.8,9.8,0,0,1,2.259-.961,16.8,16.8,0,0,1,2.415-.441,4.844,4.844,0,0,1,2.545.26A16.181,16.181,0,0,1,20.2-20.514a5.758,5.758,0,0,1,2.285,2.441,12.07,12.07,0,0,1,1.091,3.35,18.176,18.176,0,0,1,.26,3.635,22.5,22.5,0,0,1-.312,3.3,5.064,5.064,0,0,1-.467,1.584q-.364.753-.779,1.48a7.409,7.409,0,0,1-1.973,2.467,10.319,10.319,0,0,1-2.778,1.61A14.236,14.236,0,0,1,14.36.182a14.535,14.535,0,0,1-3.09.13A15.746,15.746,0,0,1,8.985-.052,7.51,7.51,0,0,1,6.855-.935.15.15,0,0,1,6.8-.831Zm1.4-11.529V-5.09a6.1,6.1,0,0,0,.571.312.814.814,0,0,0,.208.156.814.814,0,0,1,.208.156,8.055,8.055,0,0,0,5.141.364,8.7,8.7,0,0,0,4.31-2.856A13.71,13.71,0,0,0,19.4-9.27a9.9,9.9,0,0,0,.234-2.129,11.5,11.5,0,0,0-.208-2.155,14.343,14.343,0,0,0-.675-2.337,3.209,3.209,0,0,1-.441-.545,3.209,3.209,0,0,0-.441-.545,2.684,2.684,0,0,1-.493-.26,2.685,2.685,0,0,0-.493-.26q-.26-.052-.571-.1t-.571-.1a8.837,8.837,0,0,0-4.1,1.688,15.634,15.634,0,0,0-3.012,3.246Z" transform="translate(1508 283)" fill="#fff"/>
    <path id="Trazado_2849" data-name="Trazado 2849" d="M5.552-25.764A4.22,4.22,0,0,1,3.924-27.17,3.014,3.014,0,0,1,3.406-28.8a2.755,2.755,0,0,1,.814-1.962,2.928,2.928,0,0,1,2.221-.851,6.342,6.342,0,0,1,2.591.74,8.753,8.753,0,0,1,2.443,1.629,25.7,25.7,0,0,1,4.738-3.183,10.725,10.725,0,0,1,4.96-1.259,9.209,9.209,0,0,1,2.147.37A12.548,12.548,0,0,1,26.1-32.2,8.623,8.623,0,0,1,28.5-30.28a4.035,4.035,0,0,1,1.036,2.739,2.686,2.686,0,0,1-.814,2.036,2.785,2.785,0,0,1-2,.777,2.312,2.312,0,0,1-1.444-.481q-.629-.481-1.259-1.036a10.427,10.427,0,0,0-1.333-1,2.918,2.918,0,0,0-1.592-.444,4.98,4.98,0,0,0-2.258.629A18.808,18.808,0,0,0,16.4-25.541a24.751,24.751,0,0,0-2.332,1.925q-1.11,1.036-1.925,1.851V-2.073a3.523,3.523,0,0,1-1,2.554,2.945,2.945,0,0,1-2.036.851A2.869,2.869,0,0,1,7.181.555a3.741,3.741,0,0,1-1.11-2.406V-22.062a1.716,1.716,0,0,0-.037-.333A1.716,1.716,0,0,1,6-22.728a1.716,1.716,0,0,1,.037-.333,1.716,1.716,0,0,0,.037-.333v-2.147A4.062,4.062,0,0,0,5.552-25.764Z" transform="translate(1519 317)" fill="#fff"/>
  </g>
</svg>
