<svg xmlns="http://www.w3.org/2000/svg" width="118.556" height="67.732" viewBox="0 0 118.556 67.732">
  <g id="Grupo_2179" data-name="Grupo 2179" transform="translate(-1466.501 -458.749)">
    <path id="Trazado_2850" data-name="Trazado 2850" d="M53.189-3.209a5.381,5.381,0,0,1-.972,3.014,3.45,3.45,0,0,1-2.139,1.41A3.727,3.727,0,0,1,47.549.778,5.4,5.4,0,0,1,45.41-1.556a82.942,82.942,0,0,0-1.653-8.994q-1.07-4.424-2.528-8.8l-25.768.194a2.253,2.253,0,0,1-.438-.049,2.253,2.253,0,0,0-.438-.049Q12.155-10.988,10.21-2.139A4.607,4.607,0,0,1,7.973.583,3.827,3.827,0,0,1,5.2.875,3.728,3.728,0,0,1,3.063-.875a4.905,4.905,0,0,1-.438-3.5,285.858,285.858,0,0,1,7.73-27.567,174.886,174.886,0,0,1,11.328-26.3,3.394,3.394,0,0,1,2.723-2.334,3.435,3.435,0,0,1,2.042-.146A3.485,3.485,0,0,1,28.1-59.8q.1,0,.1.049t.1.049a46.464,46.464,0,0,1,8.46,10.988q3.4,6.126,6.223,12.446,1.07,2.236,1.993,4.473t1.8,4.473l5.154-.1a5.25,5.25,0,0,1,2.723,1.75,3.68,3.68,0,0,1,.827,2.382,3.765,3.765,0,0,1-1.021,2.334,4.953,4.953,0,0,1-2.82,1.507H49.591q1.264,3.987,2.188,8.022A76.273,76.273,0,0,1,53.189-3.209ZM26.351-49.98q-2.723,5.543-5.008,11.28t-4.23,11.571l21.2-.194q-1.264-2.917-2.577-5.737T33.061-38.7q-1.556-2.82-3.112-5.737A38.6,38.6,0,0,0,26.351-49.98Z" transform="translate(1464 525)" fill="#fff"/>
    <path id="Trazado_2851" data-name="Trazado 2851" d="M4.155,10.231a2.678,2.678,0,0,1-.8-1.454,1.948,1.948,0,0,1,.208-1.35A2.055,2.055,0,0,1,4.622,6.57,2.536,2.536,0,0,1,6.336,6.6q.675.364,1.143.649t.935.519a6.568,6.568,0,0,0,.961.39q.493.156,1.169.312a9.331,9.331,0,0,0,2.025.208,9.064,9.064,0,0,0,2.155-.26A6.638,6.638,0,0,0,16.7,7.582a4.109,4.109,0,0,0,1.428-1.506A3.34,3.34,0,0,0,18.54,4.57q.052-.883.052-1.61V-.415A11.161,11.161,0,0,1,16.93.26q-.831.26-1.714.519a17.588,17.588,0,0,1-2.493.338A9.32,9.32,0,0,1,10.231.935,8.539,8.539,0,0,1,5.713-1.246,10.956,10.956,0,0,1,2.986-5.3a14.019,14.019,0,0,1-.935-4.986,13.606,13.606,0,0,1,.857-4.986A11.124,11.124,0,0,1,5.038-18.7a11.049,11.049,0,0,1,3.168-2.467A9.849,9.849,0,0,1,12-22.228a7.871,7.871,0,0,1,3.947.727,25.353,25.353,0,0,1,2.856,1.61,2.184,2.184,0,0,1,.883-1.065,1.843,1.843,0,0,1,1.194-.26,2.2,2.2,0,0,1,1.169.545,2.743,2.743,0,0,1,.8,1.35V2.8a12.5,12.5,0,0,1-.831,4.8,8.071,8.071,0,0,1-3.22,3.557,13.67,13.67,0,0,1-2.129,1.091,7.907,7.907,0,0,1-2.285.571,13.728,13.728,0,0,1-4.778-.208,11.277,11.277,0,0,1-2.8-.961Q5.661,11.062,4.155,10.231ZM18.229-5.245a.837.837,0,0,1,.364-.1V-14.7a.046.046,0,0,1-.052-.052,17.569,17.569,0,0,0-2.363-1.87,9.888,9.888,0,0,0-2.778-1.3l-1.246.1-1.246.1q-.415.208-.857.415t-.857.415a8.9,8.9,0,0,0-2.83,5.4A12.286,12.286,0,0,0,7.634-5.4q.26.312.571.623t.571.623A8.187,8.187,0,0,0,18.229-5.245Z" transform="translate(1507 481)" fill="#fff"/>
    <path id="Trazado_2852" data-name="Trazado 2852" d="M2.221-5.4A3.7,3.7,0,0,1,1.777-7.81a3.032,3.032,0,0,1,.925-1.7,2.618,2.618,0,0,1,1.814-.629,4.066,4.066,0,0,1,2.3.814A12.12,12.12,0,0,0,10.846-6a13.381,13.381,0,0,0,5,1.407L17.4-5.034q.592-.444.814-.592a2.252,2.252,0,0,0,.333-.259q.111-.111.3-.333t.629-.814a2.893,2.893,0,0,0,.222-.592,5.25,5.25,0,0,1,.222-.666,5.412,5.412,0,0,1,.037-.666,5.411,5.411,0,0,0,.037-.666l-.444-1.333q-.222-.3-.481-.592t-.481-.592a13.773,13.773,0,0,0-3.7-1.7q-1.851-.518-3.591-1.073a20.423,20.423,0,0,1-3.406-1.444,9.735,9.735,0,0,1-3.146-2.887A6.99,6.99,0,0,1,3.22-23.357a10.64,10.64,0,0,1,.74-4.479,11.165,11.165,0,0,1,2.517-3.813,7.453,7.453,0,0,1,3.813-2.11,15.183,15.183,0,0,1,6.33-.148,21.047,21.047,0,0,1,6.034,2.073,3.518,3.518,0,0,1,1.555,2.184,2.879,2.879,0,0,1-.333,2.11,3.008,3.008,0,0,1-1.7,1.259,3.45,3.45,0,0,1-2.628-.37,11.354,11.354,0,0,0-3.739-1.259,13.318,13.318,0,0,0-3.961,0,1.708,1.708,0,0,1-.481.222,1.708,1.708,0,0,0-.481.222A6.411,6.411,0,0,0,9.7-25.727a4.605,4.605,0,0,0-.3,2.11,4.919,4.919,0,0,0,.37.888,4.832,4.832,0,0,0,.444.518,4.833,4.833,0,0,1,.444.518,17.45,17.45,0,0,0,3.887,1.518q2.11.555,4.109,1.259a16.232,16.232,0,0,1,3.7,1.851A7.542,7.542,0,0,1,25.023-13.7a10.655,10.655,0,0,1,.555,7.773,11.786,11.786,0,0,1-4.923,6,10.748,10.748,0,0,1-2.147,1,6.851,6.851,0,0,1-2.221.407A18.235,18.235,0,0,1,8.44-.333,15.924,15.924,0,0,1,2.221-5.4Z" transform="translate(1520 525)" fill="#fff"/>
    <path id="Trazado_2853" data-name="Trazado 2853" d="M1.856-11.37a20.774,20.774,0,0,1,1.253-2.9,13.074,13.074,0,0,1,1.764-2.576,10.752,10.752,0,0,1,2.344-2,9.39,9.39,0,0,1,2.947-1.207,6.856,6.856,0,0,1,4.71.418A8.055,8.055,0,0,1,18.1-16.707a11.411,11.411,0,0,1,1.6,4.339A10.955,10.955,0,0,1,19.492-7.7a14.438,14.438,0,0,1-2.46,5.1A10.114,10.114,0,0,1,12.577.835a7.9,7.9,0,0,1-3.829.58A7.348,7.348,0,0,1,5.453.232,8.7,8.7,0,0,1,2.97-2.32,9.805,9.805,0,0,1,1.578-5.894a10.233,10.233,0,0,1-.162-2.46,18.369,18.369,0,0,1,.3-2.413ZM5.476-10.3a17.7,17.7,0,0,0-.255,1.787,8.377,8.377,0,0,0,.07,1.833A5.093,5.093,0,0,0,6.08-4.432,4.65,4.65,0,0,0,7.657-2.9a3.9,3.9,0,0,0,2.065.51,4.631,4.631,0,0,0,2.3-.719,7.133,7.133,0,0,0,2.436-2.413,12.273,12.273,0,0,0,1.369-3.2,7.575,7.575,0,0,0,.162-2.97,7,7,0,0,0-.951-2.785,4.265,4.265,0,0,0-2-1.74,3.8,3.8,0,0,0-2.97.162,6.513,6.513,0,0,0-2.924,2.367A13.815,13.815,0,0,0,5.476-10.3Z" transform="translate(1532 483)" fill="#fff"/>
    <path id="Trazado_2854" data-name="Trazado 2854" d="M2.343-14.348a26.215,26.215,0,0,1,1.581-3.66,16.5,16.5,0,0,1,2.225-3.25,13.567,13.567,0,0,1,2.957-2.518A11.849,11.849,0,0,1,12.825-25.3a8.652,8.652,0,0,1,5.944.527,10.164,10.164,0,0,1,4.07,3.69,14.4,14.4,0,0,1,2.02,5.476A13.824,13.824,0,0,1,24.6-9.722a18.22,18.22,0,0,1-3.1,6.442,12.762,12.762,0,0,1-5.622,4.334,9.97,9.97,0,0,1-4.831.732A9.272,9.272,0,0,1,6.881.293,10.973,10.973,0,0,1,3.748-2.928,12.373,12.373,0,0,1,1.991-7.438a12.913,12.913,0,0,1-.2-3.1,23.18,23.18,0,0,1,.381-3.045ZM6.91-13a22.33,22.33,0,0,0-.322,2.255,10.571,10.571,0,0,0,.088,2.313,6.427,6.427,0,0,0,1,2.84A5.868,5.868,0,0,0,9.663-3.66a4.926,4.926,0,0,0,2.606.644,5.844,5.844,0,0,0,2.9-.908,9,9,0,0,0,3.075-3.045A15.487,15.487,0,0,0,19.97-11.01a9.559,9.559,0,0,0,.2-3.748,8.831,8.831,0,0,0-1.2-3.514,5.382,5.382,0,0,0-2.518-2.2,4.8,4.8,0,0,0-3.748.2,8.219,8.219,0,0,0-3.69,2.987A17.433,17.433,0,0,0,6.91-13Z" transform="translate(1560 520)" fill="#fff"/>
    <path id="Trazado_2855" data-name="Trazado 2855" d="M8.972-27.227a3.909,3.909,0,0,1-2.514-1.16A3,3,0,0,1,5.646-30.4a3.272,3.272,0,0,1,.89-2.127A3.311,3.311,0,0,1,9.2-33.569h4.331V-45.79a4.534,4.534,0,0,1,1.238-2.32,2.8,2.8,0,0,1,1.934-.773,3.022,3.022,0,0,1,1.9.7,3.9,3.9,0,0,1,1.276,2.166v12.453H27.3a3.9,3.9,0,0,1,2.166,1.276,3.023,3.023,0,0,1,.7,1.9,2.8,2.8,0,0,1-.773,1.934,4.534,4.534,0,0,1-2.32,1.238H19.878q-.077,5.956,0,12.26t.077,12.26A3.311,3.311,0,0,1,18.912-.039a3.272,3.272,0,0,1-2.127.89A3,3,0,0,1,14.773.039a3.909,3.909,0,0,1-1.16-2.514q0-6.033-.039-12.376t-.039-12.376Z" transform="translate(1539 520)" fill="#fff"/>
  </g>
</svg>
