<svg xmlns="http://www.w3.org/2000/svg" width="135.206" height="72.514" viewBox="0 0 135.206 72.514">
  <g id="Grupo_2185" data-name="Grupo 2185" transform="translate(-1457.875 -665.334)">
    <path id="Trazado_2892" data-name="Trazado 2892" d="M12.641,1.848a5.825,5.825,0,0,1-2.431-.827A4.3,4.3,0,0,1,8.751-.486L8.46-1.07q-.194-.486-.389-1.021a2.987,2.987,0,0,1-.194-1.021v-43.66a14.934,14.934,0,0,0-1.41.535,3.741,3.741,0,0,1-1.507.243,4.112,4.112,0,0,1-2.966-1.07A3.385,3.385,0,0,1,.875-49.591q0-2.139,2.48-3.7a24.018,24.018,0,0,1,5.883-2.577,45.007,45.007,0,0,1,7.147-1.507,49.714,49.714,0,0,1,6.175-.486A32.32,32.32,0,0,1,35.2-55.523a27.673,27.673,0,0,1,9.335,6.272,26.812,26.812,0,0,1,5.786,9.189,30.7,30.7,0,0,1,1.993,10.988,31.727,31.727,0,0,1-2.139,11.425A26.427,26.427,0,0,1,43.66-7.876,23.853,23.853,0,0,1,36.9-3.257,45.6,45.6,0,0,1,29.074-.535,65,65,0,0,1,20.809.972Q16.628,1.459,12.641,1.848Zm9.821-51.73a28.272,28.272,0,0,0-3.306.194q-1.653.194-3.306.486V-6.418q2.82-.292,5.98-.681A48.291,48.291,0,0,0,28-8.265a30.577,30.577,0,0,0,5.64-2.042,13.928,13.928,0,0,0,4.376-3.209A23.535,23.535,0,0,0,42.736-21.2a24.736,24.736,0,0,0,1.6-8.751,20.341,20.341,0,0,0-1.41-7.487,18.434,18.434,0,0,0-4.181-6.369,20.344,20.344,0,0,0-6.855-4.424A25,25,0,0,0,22.462-49.883Z" transform="translate(1457 736)" fill="#fff"/>
    <path id="Trazado_2893" data-name="Trazado 2893" d="M7.79-1.662A2.472,2.472,0,0,1,7.089.13a2.066,2.066,0,0,1-1.428.6A2.013,2.013,0,0,1,4.31.182a2.625,2.625,0,0,1-.779-1.688q-.052-4.882-.078-9.971t-.078-9.971a3.044,3.044,0,0,1,.831-1.558,1.877,1.877,0,0,1,1.3-.519,2.029,2.029,0,0,1,1.272.467A2.622,2.622,0,0,1,7.634-21.6q.052,4.882.078,9.971T7.79-1.662ZM3.012-29.914a2.8,2.8,0,0,1,.727-1.948,2.292,2.292,0,0,1,1.766-.8,2.372,2.372,0,0,1,1.792.8,2.748,2.748,0,0,1,.753,1.948,2.684,2.684,0,0,1-.753,1.9,2.372,2.372,0,0,1-1.792.8,2.292,2.292,0,0,1-1.766-.8A2.736,2.736,0,0,1,3.012-29.914Z" transform="translate(1509 698)" fill="#fff"/>
    <path id="Trazado_2894" data-name="Trazado 2894" d="M24.248-9.366a2.982,2.982,0,0,1,1.9-.747,2.109,2.109,0,0,1,1.551.632,2.179,2.179,0,0,1,.632,1.609,3.65,3.65,0,0,1-.287,1.264,30.711,30.711,0,0,1-2.155,2.9,15.163,15.163,0,0,1-2.614,2.471A13.452,13.452,0,0,1,20.139.488a10.283,10.283,0,0,1-3.764.661,12.594,12.594,0,0,1-5.66-1.264A13.834,13.834,0,0,1,6.292-3.562,15.478,15.478,0,0,1,3.419-8.7a19.606,19.606,0,0,1-1.006-6.349,15.27,15.27,0,0,1,.632-4.482,25.775,25.775,0,0,1,2.011-4.827,16.357,16.357,0,0,1,2.729-3.649,19.033,19.033,0,0,1,3.62-2.815,34.407,34.407,0,0,1,4.683-2.327A24.235,24.235,0,0,1,19.277-34.3a10.532,10.532,0,0,1,2.787-.4,6.078,6.078,0,0,1,3.62,1.149,10.9,10.9,0,0,1,3.045,3.907,3.254,3.254,0,0,1,.172,1.034,2.253,2.253,0,0,1-.632,1.666,2.109,2.109,0,0,1-1.551.632,2.8,2.8,0,0,1-2.011-.919,9.244,9.244,0,0,0-1.436-2.183,1.98,1.98,0,0,0-1.436-.632,4.449,4.449,0,0,0-1.494.316q-.862.316-2.183.776a26.8,26.8,0,0,0-4.194,2.1,15.164,15.164,0,0,0-3.534,2.988,13.617,13.617,0,0,0-2.413,4.051,14.389,14.389,0,0,0-.891,5.229,13.257,13.257,0,0,0,.632,4.051,12.018,12.018,0,0,0,1.81,3.562,8.972,8.972,0,0,0,2.9,2.528,8.092,8.092,0,0,0,3.965.948A5.951,5.951,0,0,0,18.9-4.022,8.429,8.429,0,0,0,21.03-5.4a13.919,13.919,0,0,0,1.781-1.9A22.406,22.406,0,0,0,24.248-9.366Z" transform="translate(1507 730)" fill="#fff"/>
    <path id="Trazado_2895" data-name="Trazado 2895" d="M6.961-1.485a2.209,2.209,0,0,1-.627,1.6A1.846,1.846,0,0,1,5.059.65,1.8,1.8,0,0,1,3.852.162a2.345,2.345,0,0,1-.7-1.508q-.046-4.362-.07-8.91t-.07-8.91a2.72,2.72,0,0,1,.743-1.392,1.678,1.678,0,0,1,1.16-.464,1.814,1.814,0,0,1,1.137.418,2.343,2.343,0,0,1,.766,1.3q.046,4.362.07,8.91T6.961-1.485ZM2.692-26.731a2.5,2.5,0,0,1,.65-1.74,2.049,2.049,0,0,1,1.578-.719,2.119,2.119,0,0,1,1.6.719,2.456,2.456,0,0,1,.673,1.74,2.4,2.4,0,0,1-.673,1.694,2.119,2.119,0,0,1-1.6.719,2.049,2.049,0,0,1-1.578-.719A2.445,2.445,0,0,1,2.692-26.731Z" transform="translate(1536 704)" fill="#fff"/>
    <path id="Trazado_2896" data-name="Trazado 2896" d="M14.488-13.662a.282.282,0,0,1,.049-.194,1.265,1.265,0,0,1-.049-.389v-.535a4.02,4.02,0,0,0-1.848-2.188A6.183,6.183,0,0,0,9.87-17.7a7.533,7.533,0,0,0-2.042,1.021L6.807-15.364a1.869,1.869,0,0,1-.292.316,3.419,3.419,0,0,1-.292.219v13.37A2.314,2.314,0,0,1,5.567.219,1.934,1.934,0,0,1,4.23.778,1.884,1.884,0,0,1,2.966.267a2.457,2.457,0,0,1-.729-1.58V-20.128a2.7,2.7,0,0,1,.778-1.434,1.808,1.808,0,0,1,1.215-.462,1.905,1.905,0,0,1,1.143.413,2.3,2.3,0,0,1,.8,1.288,10.553,10.553,0,0,1,1.872-1,5.877,5.877,0,0,1,2.309-.462,8.041,8.041,0,0,1,3.573.9,8.735,8.735,0,0,1,2.941,2.261q.535-.535,1.143-1.094A11.136,11.136,0,0,1,19.3-20.736a8.593,8.593,0,0,1,1.41-.778,3.643,3.643,0,0,1,1.459-.316,8.919,8.919,0,0,1,2.966.51,8.946,8.946,0,0,1,2.6,1.41,7.533,7.533,0,0,1,1.848,2.091,4.843,4.843,0,0,1,.7,2.5.339.339,0,0,1-.024.146.339.339,0,0,0-.024.146.14.14,0,0,1,.049.1.14.14,0,0,0,.049.1V-1.653A2.314,2.314,0,0,1,29.682.024a1.934,1.934,0,0,1-1.337.559,1.884,1.884,0,0,1-1.264-.51,2.457,2.457,0,0,1-.729-1.58V-14.829A3.737,3.737,0,0,0,24.7-17.138a4.647,4.647,0,0,0-2.236-.608,4.254,4.254,0,0,0-2.285.632,4.663,4.663,0,0,0-1.7,2.334V-1.7a2.314,2.314,0,0,1-.656,1.677,1.934,1.934,0,0,1-1.337.559,1.884,1.884,0,0,1-1.264-.51,2.457,2.457,0,0,1-.729-1.58Z" transform="translate(1535 731)" fill="#fff"/>
    <path id="Trazado_2897" data-name="Trazado 2897" d="M17.37-5.171a2.164,2.164,0,0,1,1.591-.088,1.732,1.732,0,0,1,.95.84A1.73,1.73,0,0,1,20-3.138a2.058,2.058,0,0,1-1.039,1.193A28.267,28.267,0,0,1,15.823-.4a14.383,14.383,0,0,1-3.4.972,10.546,10.546,0,0,1-3.4-.022A8.085,8.085,0,0,1,5.79-.8a8.122,8.122,0,0,1-2.829-3.47A11.638,11.638,0,0,1,1.945-8.818a11.226,11.226,0,0,1,.862-4.552,7.754,7.754,0,0,1,2.851-3.514,15.518,15.518,0,0,1,4.42-2.055,9.7,9.7,0,0,1,4.818-.155,4.8,4.8,0,0,1,2.166,1.127,7.045,7.045,0,0,1,1.569,1.989,5.447,5.447,0,0,1,.641,2.387,4.22,4.22,0,0,1-.619,2.365,6.305,6.305,0,0,1-2.166,2.1,16.855,16.855,0,0,1-3.072,1.459,31.458,31.458,0,0,1-3.315.994q-1.657.4-2.9.751a2.391,2.391,0,0,1-1.017.044,5.761,5.761,0,0,0,1.967,2.32,4.941,4.941,0,0,0,3.249.773,8.06,8.06,0,0,0,3.116-.862Q16.088-4.42,17.37-5.171ZM8.751-14.586A5.474,5.474,0,0,0,6.32-12.221a6.835,6.835,0,0,0-.8,3.2,2.87,2.87,0,0,1,.663-.354q.8-.221,1.613-.464T9.459-10.3q.53-.133,1.436-.4t1.878-.619a10.884,10.884,0,0,0,1.768-.818A2.481,2.481,0,0,0,15.6-13.171,2.059,2.059,0,0,0,14.9-15.16a3.347,3.347,0,0,0-1.9-.53,7.643,7.643,0,0,0-2.3.376A15.889,15.889,0,0,0,8.751-14.586Z" transform="translate(1543 702)" fill="#fff"/>
    <path id="Trazado_2898" data-name="Trazado 2898" d="M5.645-.69a2.274,2.274,0,0,1-1.379.366A1.641,1.641,0,0,1,3.232-.776,1.641,1.641,0,0,1,2.78-1.81a2.274,2.274,0,0,1,.366-1.379l.129-.129V-25.727a2.2,2.2,0,0,1,.668-1.25,1.669,1.669,0,0,1,1.034-.452,1.631,1.631,0,0,1,1.056.366,2.327,2.327,0,0,1,.776,1.207V-15.6a7.863,7.863,0,0,1,2.025-1.422,8.135,8.135,0,0,1,1.875-.8,13.943,13.943,0,0,1,2-.366,4.019,4.019,0,0,1,2.112.215,13.426,13.426,0,0,1,1.939.948A4.778,4.778,0,0,1,18.66-15a10.016,10.016,0,0,1,.9,2.78A15.083,15.083,0,0,1,19.78-9.2a18.667,18.667,0,0,1-.259,2.736,4.2,4.2,0,0,1-.388,1.314q-.3.625-.646,1.228A6.148,6.148,0,0,1,16.85-1.875,8.563,8.563,0,0,1,14.544-.539a11.813,11.813,0,0,1-2.629.69A12.061,12.061,0,0,1,9.351.259a13.066,13.066,0,0,1-1.9-.3A6.232,6.232,0,0,1,5.688-.776.124.124,0,0,1,5.645-.69Zm1.164-9.567v6.033a5.061,5.061,0,0,0,.474.259.675.675,0,0,0,.172.129.675.675,0,0,1,.172.129,6.684,6.684,0,0,0,4.266.3,7.217,7.217,0,0,0,3.577-2.37A11.376,11.376,0,0,0,16.1-7.692a8.219,8.219,0,0,0,.194-1.767,9.542,9.542,0,0,0-.172-1.788,11.9,11.9,0,0,0-.56-1.939,2.663,2.663,0,0,1-.366-.452,2.663,2.663,0,0,0-.366-.452,2.228,2.228,0,0,1-.409-.215,2.228,2.228,0,0,0-.409-.215q-.215-.043-.474-.086t-.474-.086a7.332,7.332,0,0,0-3.4,1.4,12.973,12.973,0,0,0-2.5,2.693Z" transform="translate(1563 707)" fill="#fff"/>
    <path id="Trazado_2899" data-name="Trazado 2899" d="M17.37-5.171a2.164,2.164,0,0,1,1.591-.088,1.732,1.732,0,0,1,.95.84A1.73,1.73,0,0,1,20-3.138a2.058,2.058,0,0,1-1.039,1.193A28.267,28.267,0,0,1,15.823-.4a14.383,14.383,0,0,1-3.4.972,10.546,10.546,0,0,1-3.4-.022A8.085,8.085,0,0,1,5.79-.8a8.122,8.122,0,0,1-2.829-3.47A11.638,11.638,0,0,1,1.945-8.818a11.226,11.226,0,0,1,.862-4.552,7.754,7.754,0,0,1,2.851-3.514,15.518,15.518,0,0,1,4.42-2.055,9.7,9.7,0,0,1,4.818-.155,4.8,4.8,0,0,1,2.166,1.127,7.045,7.045,0,0,1,1.569,1.989,5.447,5.447,0,0,1,.641,2.387,4.22,4.22,0,0,1-.619,2.365,6.305,6.305,0,0,1-2.166,2.1,16.855,16.855,0,0,1-3.072,1.459,31.458,31.458,0,0,1-3.315.994q-1.657.4-2.9.751a2.391,2.391,0,0,1-1.017.044,5.761,5.761,0,0,0,1.967,2.32,4.941,4.941,0,0,0,3.249.773,8.06,8.06,0,0,0,3.116-.862Q16.088-4.42,17.37-5.171ZM8.751-14.586A5.474,5.474,0,0,0,6.32-12.221a6.835,6.835,0,0,0-.8,3.2,2.87,2.87,0,0,1,.663-.354q.8-.221,1.613-.464T9.459-10.3q.53-.133,1.436-.4t1.878-.619a10.884,10.884,0,0,0,1.768-.818A2.481,2.481,0,0,0,15.6-13.171,2.059,2.059,0,0,0,14.9-15.16a3.347,3.347,0,0,0-1.9-.53,7.643,7.643,0,0,0-2.3.376A15.889,15.889,0,0,0,8.751-14.586Z" transform="translate(1573 737)" fill="#fff"/>
    <path id="Trazado_2900" data-name="Trazado 2900" d="M3.149-14.612a2.394,2.394,0,0,1-.924-.8,1.709,1.709,0,0,1-.294-.924,1.563,1.563,0,0,1,.462-1.113,1.661,1.661,0,0,1,1.26-.483,3.6,3.6,0,0,1,1.47.42,4.965,4.965,0,0,1,1.386.924A14.575,14.575,0,0,1,9.2-18.391a6.083,6.083,0,0,1,2.813-.714,5.223,5.223,0,0,1,1.218.21,7.116,7.116,0,0,1,1.575.63,4.891,4.891,0,0,1,1.365,1.092,2.289,2.289,0,0,1,.588,1.554,1.523,1.523,0,0,1-.462,1.155,1.58,1.58,0,0,1-1.134.441,1.311,1.311,0,0,1-.819-.273q-.357-.273-.714-.588a5.914,5.914,0,0,0-.756-.567,1.655,1.655,0,0,0-.9-.252,2.825,2.825,0,0,0-1.281.357,10.667,10.667,0,0,0-1.386.861,14.038,14.038,0,0,0-1.323,1.092q-.63.588-1.092,1.05V-1.176A2,2,0,0,1,6.319.273,1.67,1.67,0,0,1,5.165.756,1.627,1.627,0,0,1,4.073.315a2.122,2.122,0,0,1-.63-1.365V-12.513a.973.973,0,0,0-.021-.189.973.973,0,0,1-.021-.189.973.973,0,0,1,.021-.189.973.973,0,0,0,.021-.189v-1.218A2.3,2.3,0,0,0,3.149-14.612Z" transform="translate(1566 728)" fill="#fff"/>
  </g>
</svg>
