<svg xmlns="http://www.w3.org/2000/svg" width="105.397" height="63.552" viewBox="0 0 105.397 63.552">
  <g id="Grupo_2175" data-name="Grupo 2175" transform="translate(-210.278 -254.776)">
    <path id="Trazado_2828" data-name="Trazado 2828" d="M38.7-10.113a4.856,4.856,0,0,1,3.063.729,3.647,3.647,0,0,1,1.556,2.042,3.821,3.821,0,0,1-.194,2.528,4.9,4.9,0,0,1-2.188,2.285A60.97,60.97,0,0,1,33.45-.972a73.915,73.915,0,0,1-8.071.729,74.221,74.221,0,0,1-8.071-.146A46.373,46.373,0,0,1,9.724-1.556a5.281,5.281,0,0,1-2.236-1.9A3.551,3.551,0,0,1,6.9-5.64V-48.424a3.566,3.566,0,0,1-1.945-1.361,3.649,3.649,0,0,1-.681-2.139,3.961,3.961,0,0,1,.778-2.285,4.78,4.78,0,0,1,2.431-1.7,42,42,0,0,1,7.73-1.6q3.938-.438,7.925-.583t7.973-.146q3.987,0,7.876-.194a4.573,4.573,0,0,1,3.355.972,3.956,3.956,0,0,1,1.41,2.431,3.649,3.649,0,0,1-.729,2.674,4.881,4.881,0,0,1-3.063,1.8q-5.834.292-12.4.194a73.852,73.852,0,0,0-12.69.875V-32.38q5.056.194,10.161-.049T35.3-33.158a4.573,4.573,0,0,1,3.355.972,3.956,3.956,0,0,1,1.41,2.431,3.649,3.649,0,0,1-.729,2.674,4.881,4.881,0,0,1-3.063,1.8q-5.348.486-10.745.778t-10.648.1V-8.654a55.418,55.418,0,0,0,12.106.438A61.893,61.893,0,0,0,38.7-10.113Z" transform="translate(206 314)" fill="#fff"/>
    <path id="Trazado_2829" data-name="Trazado 2829" d="M20.128-1.459A2.314,2.314,0,0,1,19.472.219a1.934,1.934,0,0,1-1.337.559,1.884,1.884,0,0,1-1.264-.51,2.457,2.457,0,0,1-.729-1.58q0-2.236-.024-4.449t-.024-4.449q0-1.6.024-3.209a19.421,19.421,0,0,0-.219-3.209,1.774,1.774,0,0,0-.851-.9,3.165,3.165,0,0,0-1.094-.17,7.214,7.214,0,0,0-3.257.8,6.342,6.342,0,0,0-2.528,2.212q-.535.827-.851,1.386A4.153,4.153,0,0,0,6.9-11.669v4.959q0,2.48.049,4.959A2.314,2.314,0,0,1,6.3-.073,1.934,1.934,0,0,1,4.959.486,1.884,1.884,0,0,1,3.7-.024,2.457,2.457,0,0,1,2.966-1.6V-6.126q0-2.188-.024-4.327T2.917-14.8V-19.35A2.85,2.85,0,0,1,3.7-20.809,1.758,1.758,0,0,1,4.91-21.3a1.9,1.9,0,0,1,1.191.438A2.455,2.455,0,0,1,6.9-19.5v.389a11.133,11.133,0,0,1,3.185-1.92,9.611,9.611,0,0,1,3.573-.7,7.185,7.185,0,0,1,3.379.827,6.1,6.1,0,0,1,2.552,2.674,4.55,4.55,0,0,1,.462,1.58,19.2,19.2,0,0,1,.146,1.993q.024,1.045-.024,2.139t-.049,2.066v8.994Z" transform="translate(250 278)" fill="#fff"/>
    <path id="Trazado_2830" data-name="Trazado 2830" d="M19.976-5.947a2.488,2.488,0,0,1,1.83-.1,1.992,1.992,0,0,1,1.093.966A1.989,1.989,0,0,1,23-3.609a2.367,2.367,0,0,1-1.194,1.372A32.507,32.507,0,0,1,18.2-.457,16.54,16.54,0,0,1,14.283.661,12.128,12.128,0,0,1,10.369.635a9.3,9.3,0,0,1-3.71-1.55A9.341,9.341,0,0,1,3.406-4.9,13.383,13.383,0,0,1,2.236-10.14a12.91,12.91,0,0,1,.991-5.235,8.917,8.917,0,0,1,3.278-4.041,17.846,17.846,0,0,1,5.083-2.364,11.159,11.159,0,0,1,5.54-.178,5.518,5.518,0,0,1,2.491,1.3,8.1,8.1,0,0,1,1.8,2.287,6.264,6.264,0,0,1,.737,2.745,4.853,4.853,0,0,1-.712,2.719A7.251,7.251,0,0,1,18.959-10.5a19.383,19.383,0,0,1-3.533,1.677,36.177,36.177,0,0,1-3.812,1.144q-1.906.457-3.329.864a2.75,2.75,0,0,1-1.169.051A6.625,6.625,0,0,0,9.378-4.092a5.683,5.683,0,0,0,3.736.89A9.269,9.269,0,0,0,16.7-4.193Q18.5-5.083,19.976-5.947ZM10.064-16.773a6.3,6.3,0,0,0-2.8,2.719,7.86,7.86,0,0,0-.915,3.685,3.3,3.3,0,0,1,.762-.407q.915-.254,1.855-.534t1.906-.534q.61-.152,1.652-.457t2.16-.712a12.517,12.517,0,0,0,2.033-.94,2.853,2.853,0,0,0,1.22-1.194,2.368,2.368,0,0,0-.813-2.287,3.848,3.848,0,0,0-2.186-.61,8.79,8.79,0,0,0-2.643.432A18.272,18.272,0,0,0,10.064-16.773Z" transform="translate(272 277)" fill="#fff"/>
    <path id="Trazado_2831" data-name="Trazado 2831" d="M5.47-25.379a4.157,4.157,0,0,1-1.6-1.386,2.969,2.969,0,0,1-.51-1.6,2.714,2.714,0,0,1,.8-1.933,2.884,2.884,0,0,1,2.188-.839,6.247,6.247,0,0,1,2.552.729,8.623,8.623,0,0,1,2.407,1.6,25.315,25.315,0,0,1,4.667-3.136,10.565,10.565,0,0,1,4.886-1.24,9.072,9.072,0,0,1,2.115.365,12.36,12.36,0,0,1,2.735,1.094,8.494,8.494,0,0,1,2.37,1.9,3.975,3.975,0,0,1,1.021,2.7,2.646,2.646,0,0,1-.8,2.006,2.744,2.744,0,0,1-1.969.766,2.278,2.278,0,0,1-1.422-.474q-.62-.474-1.24-1.021a10.272,10.272,0,0,0-1.313-.985,2.874,2.874,0,0,0-1.568-.438,4.906,4.906,0,0,0-2.224.62,18.527,18.527,0,0,0-2.407,1.5,24.382,24.382,0,0,0-2.3,1.9q-1.094,1.021-1.9,1.823v19.4A3.471,3.471,0,0,1,10.976.474a2.9,2.9,0,0,1-2.006.839,2.826,2.826,0,0,1-1.9-.766A3.686,3.686,0,0,1,5.98-1.823V-21.733a1.69,1.69,0,0,0-.036-.328,1.69,1.69,0,0,1-.036-.328,1.69,1.69,0,0,1,.036-.328,1.69,1.69,0,0,0,.036-.328V-25.16A4,4,0,0,0,5.47-25.379Z" transform="translate(255 315)" fill="#fff"/>
    <path id="Trazado_2832" data-name="Trazado 2832" d="M2.961-18.138a33.14,33.14,0,0,1,2-4.627,20.856,20.856,0,0,1,2.813-4.109,17.151,17.151,0,0,1,3.739-3.183,14.979,14.979,0,0,1,4.7-1.925,10.937,10.937,0,0,1,7.514.666,12.849,12.849,0,0,1,5.145,4.664,18.2,18.2,0,0,1,2.554,6.922,17.475,17.475,0,0,1-.333,7.44A23.033,23.033,0,0,1,27.17-4.146a16.134,16.134,0,0,1-7.107,5.478,12.6,12.6,0,0,1-6.108.925A11.721,11.721,0,0,1,8.7.37,13.871,13.871,0,0,1,4.738-3.7,15.642,15.642,0,0,1,2.517-9.4a16.323,16.323,0,0,1-.259-3.924,29.3,29.3,0,0,1,.481-3.85Zm5.775,1.7a28.228,28.228,0,0,0-.407,2.85,13.364,13.364,0,0,0,.111,2.924A8.125,8.125,0,0,0,9.7-7.07a7.418,7.418,0,0,0,2.517,2.443,6.227,6.227,0,0,0,3.294.814A7.387,7.387,0,0,0,19.175-4.96a11.379,11.379,0,0,0,3.887-3.85,19.578,19.578,0,0,0,2.184-5.108,12.084,12.084,0,0,0,.259-4.738A11.164,11.164,0,0,0,23.987-23.1,6.8,6.8,0,0,0,20.8-25.875a6.065,6.065,0,0,0-4.738.259A10.391,10.391,0,0,0,11.4-21.84,22.038,22.038,0,0,0,8.736-16.435Z" transform="translate(284 316)" fill="#fff"/>
  </g>
</svg>
