<svg xmlns="http://www.w3.org/2000/svg" width="115.842" height="72.161" viewBox="0 0 115.842 72.161">
  <g id="Grupo_2176" data-name="Grupo 2176" transform="translate(-627.014 -249.646)">
    <path id="Trazado_2833" data-name="Trazado 2833" d="M13.516-2.625A4.628,4.628,0,0,1,12.2.729,3.869,3.869,0,0,1,9.529,1.848,3.769,3.769,0,0,1,7,.827a4.914,4.914,0,0,1-1.459-3.16V-26.546a3.8,3.8,0,0,1-2.528-3.6,3.926,3.926,0,0,1,.632-2.091,3.711,3.711,0,0,1,1.9-1.507v-.681q0-1.167.049-2.771t.049-3.452a49.306,49.306,0,0,0-.292-5.445,9.094,9.094,0,0,0-1.361-4.181A6.279,6.279,0,0,1,3.4-52.7q0-2.82,3.014-3.792a60.262,60.262,0,0,1,7.244-.729q3.646-.146,7.293-.194t7.341-.146a67.723,67.723,0,0,0,7.293-.583,5.219,5.219,0,0,1,3.549,1.07,3.467,3.467,0,0,1,1.215,2.723,3.8,3.8,0,0,1-.924,2.48,5.237,5.237,0,0,1-2.869,1.6,85.719,85.719,0,0,1-11.863.729q-5.931-.049-11.863.34a25.577,25.577,0,0,1,.632,4.23q.146,2.188.146,4.327,0,1.653-.049,3.112t-.049,2.82v.972q5.251,0,10.793-.243a38.448,38.448,0,0,0,9.627-1.507,5.254,5.254,0,0,1,3.5,1.07A3.41,3.41,0,0,1,38.7-31.7q0,2.431-2.723,3.646a23.389,23.389,0,0,1-6.612,1.7,66.709,66.709,0,0,1-8.265.486H13.516Z" transform="translate(624 316)" fill="#fff"/>
    <path id="Trazado_2834" data-name="Trazado 2834" d="M19.976-5.947a2.488,2.488,0,0,1,1.83-.1,1.992,1.992,0,0,1,1.093.966A1.989,1.989,0,0,1,23-3.609a2.367,2.367,0,0,1-1.194,1.372A32.507,32.507,0,0,1,18.2-.457,16.54,16.54,0,0,1,14.283.661,12.128,12.128,0,0,1,10.369.635a9.3,9.3,0,0,1-3.71-1.55A9.341,9.341,0,0,1,3.406-4.9,13.383,13.383,0,0,1,2.236-10.14a12.91,12.91,0,0,1,.991-5.235,8.917,8.917,0,0,1,3.278-4.041,17.846,17.846,0,0,1,5.083-2.364,11.159,11.159,0,0,1,5.54-.178,5.518,5.518,0,0,1,2.491,1.3,8.1,8.1,0,0,1,1.8,2.287,6.264,6.264,0,0,1,.737,2.745,4.853,4.853,0,0,1-.712,2.719A7.251,7.251,0,0,1,18.959-10.5a19.383,19.383,0,0,1-3.533,1.677,36.177,36.177,0,0,1-3.812,1.144q-1.906.457-3.329.864a2.75,2.75,0,0,1-1.169.051A6.625,6.625,0,0,0,9.378-4.092a5.683,5.683,0,0,0,3.736.89A9.269,9.269,0,0,0,16.7-4.193Q18.5-5.083,19.976-5.947ZM10.064-16.773a6.3,6.3,0,0,0-2.8,2.719,7.86,7.86,0,0,0-.915,3.685,3.3,3.3,0,0,1,.762-.407q.915-.254,1.855-.534t1.906-.534q.61-.152,1.652-.457t2.16-.712a12.517,12.517,0,0,0,2.033-.94,2.853,2.853,0,0,0,1.22-1.194,2.368,2.368,0,0,0-.813-2.287,3.848,3.848,0,0,0-2.186-.61,8.79,8.79,0,0,0-2.643.432A18.272,18.272,0,0,0,10.064-16.773Z" transform="translate(664 282)" fill="#fff"/>
    <path id="Trazado_2835" data-name="Trazado 2835" d="M5.47-25.379a4.157,4.157,0,0,1-1.6-1.386,2.969,2.969,0,0,1-.51-1.6,2.714,2.714,0,0,1,.8-1.933,2.884,2.884,0,0,1,2.188-.839,6.247,6.247,0,0,1,2.552.729,8.623,8.623,0,0,1,2.407,1.6,25.315,25.315,0,0,1,4.667-3.136,10.565,10.565,0,0,1,4.886-1.24,9.072,9.072,0,0,1,2.115.365,12.36,12.36,0,0,1,2.735,1.094,8.494,8.494,0,0,1,2.37,1.9,3.975,3.975,0,0,1,1.021,2.7,2.646,2.646,0,0,1-.8,2.006,2.744,2.744,0,0,1-1.969.766,2.278,2.278,0,0,1-1.422-.474q-.62-.474-1.24-1.021a10.272,10.272,0,0,0-1.313-.985,2.874,2.874,0,0,0-1.568-.438,4.906,4.906,0,0,0-2.224.62,18.527,18.527,0,0,0-2.407,1.5,24.382,24.382,0,0,0-2.3,1.9q-1.094,1.021-1.9,1.823v19.4A3.471,3.471,0,0,1,10.976.474a2.9,2.9,0,0,1-2.006.839,2.826,2.826,0,0,1-1.9-.766A3.686,3.686,0,0,1,5.98-1.823V-21.733a1.69,1.69,0,0,0-.036-.328,1.69,1.69,0,0,1-.036-.328,1.69,1.69,0,0,1,.036-.328,1.69,1.69,0,0,0,.036-.328V-25.16A4,4,0,0,0,5.47-25.379Z" transform="translate(662 320)" fill="#fff"/>
    <path id="Trazado_2836" data-name="Trazado 2836" d="M1.856-11.37a20.774,20.774,0,0,1,1.253-2.9,13.074,13.074,0,0,1,1.764-2.576,10.752,10.752,0,0,1,2.344-2,9.39,9.39,0,0,1,2.947-1.207,6.856,6.856,0,0,1,4.71.418A8.055,8.055,0,0,1,18.1-16.707a11.411,11.411,0,0,1,1.6,4.339A10.955,10.955,0,0,1,19.492-7.7a14.438,14.438,0,0,1-2.46,5.1A10.114,10.114,0,0,1,12.577.835a7.9,7.9,0,0,1-3.829.58A7.348,7.348,0,0,1,5.453.232,8.7,8.7,0,0,1,2.97-2.32,9.805,9.805,0,0,1,1.578-5.894a10.233,10.233,0,0,1-.162-2.46,18.369,18.369,0,0,1,.3-2.413ZM5.476-10.3a17.7,17.7,0,0,0-.255,1.787,8.377,8.377,0,0,0,.07,1.833A5.093,5.093,0,0,0,6.08-4.432,4.65,4.65,0,0,0,7.657-2.9a3.9,3.9,0,0,0,2.065.51,4.631,4.631,0,0,0,2.3-.719,7.133,7.133,0,0,0,2.436-2.413,12.273,12.273,0,0,0,1.369-3.2,7.575,7.575,0,0,0,.162-2.97,7,7,0,0,0-.951-2.785,4.265,4.265,0,0,0-2-1.74,3.8,3.8,0,0,0-2.97.162,6.513,6.513,0,0,0-2.924,2.367A13.815,13.815,0,0,0,5.476-10.3Z" transform="translate(723 320)" fill="#fff"/>
    <path id="Trazado_2837" data-name="Trazado 2837" d="M6.659-.813a2.682,2.682,0,0,1-1.627.432,1.935,1.935,0,0,1-1.22-.534,1.935,1.935,0,0,1-.534-1.22A2.682,2.682,0,0,1,3.71-3.761l.152-.152V-30.345a2.589,2.589,0,0,1,.788-1.474,1.968,1.968,0,0,1,1.22-.534,1.924,1.924,0,0,1,1.245.432A2.744,2.744,0,0,1,8.031-30.5v12.1a9.274,9.274,0,0,1,2.389-1.677,9.6,9.6,0,0,1,2.211-.94,16.445,16.445,0,0,1,2.364-.432,4.741,4.741,0,0,1,2.491.254,15.836,15.836,0,0,1,2.287,1.118,5.635,5.635,0,0,1,2.236,2.389,11.813,11.813,0,0,1,1.067,3.278,17.79,17.79,0,0,1,.254,3.558,22.017,22.017,0,0,1-.3,3.228,4.956,4.956,0,0,1-.457,1.55q-.356.737-.762,1.449a7.252,7.252,0,0,1-1.931,2.414A10.1,10.1,0,0,1,17.155-.635a13.933,13.933,0,0,1-3.1.813A14.226,14.226,0,0,1,11.03.3,15.411,15.411,0,0,1,8.793-.051,7.35,7.35,0,0,1,6.709-.915.146.146,0,0,1,6.659-.813ZM8.031-12.1v7.116a5.969,5.969,0,0,0,.559.3.8.8,0,0,0,.2.152.8.8,0,0,1,.2.152,7.884,7.884,0,0,0,5.032.356,8.512,8.512,0,0,0,4.219-2.8,13.418,13.418,0,0,0,.737-2.262,9.694,9.694,0,0,0,.229-2.084,11.254,11.254,0,0,0-.2-2.109,14.038,14.038,0,0,0-.661-2.287,3.141,3.141,0,0,1-.432-.534,3.141,3.141,0,0,0-.432-.534A2.627,2.627,0,0,1,17-16.875a2.627,2.627,0,0,0-.483-.254q-.254-.051-.559-.1t-.559-.1a8.649,8.649,0,0,0-4.015,1.652A15.3,15.3,0,0,0,8.438-12.5Z" transform="translate(688 282)" fill="#fff"/>
    <path id="Trazado_2838" data-name="Trazado 2838" d="M19.976-5.947a2.488,2.488,0,0,1,1.83-.1,1.992,1.992,0,0,1,1.093.966A1.989,1.989,0,0,1,23-3.609a2.367,2.367,0,0,1-1.194,1.372A32.507,32.507,0,0,1,18.2-.457,16.54,16.54,0,0,1,14.283.661,12.128,12.128,0,0,1,10.369.635a9.3,9.3,0,0,1-3.71-1.55A9.341,9.341,0,0,1,3.406-4.9,13.383,13.383,0,0,1,2.236-10.14a12.91,12.91,0,0,1,.991-5.235,8.917,8.917,0,0,1,3.278-4.041,17.846,17.846,0,0,1,5.083-2.364,11.159,11.159,0,0,1,5.54-.178,5.518,5.518,0,0,1,2.491,1.3,8.1,8.1,0,0,1,1.8,2.287,6.264,6.264,0,0,1,.737,2.745,4.853,4.853,0,0,1-.712,2.719A7.251,7.251,0,0,1,18.959-10.5a19.383,19.383,0,0,1-3.533,1.677,36.177,36.177,0,0,1-3.812,1.144q-1.906.457-3.329.864a2.75,2.75,0,0,1-1.169.051A6.625,6.625,0,0,0,9.378-4.092a5.683,5.683,0,0,0,3.736.89A9.269,9.269,0,0,0,16.7-4.193Q18.5-5.083,19.976-5.947ZM10.064-16.773a6.3,6.3,0,0,0-2.8,2.719,7.86,7.86,0,0,0-.915,3.685,3.3,3.3,0,0,1,.762-.407q.915-.254,1.855-.534t1.906-.534q.61-.152,1.652-.457t2.16-.712a12.517,12.517,0,0,0,2.033-.94,2.853,2.853,0,0,0,1.22-1.194,2.368,2.368,0,0,0-.813-2.287,3.848,3.848,0,0,0-2.186-.61,8.79,8.79,0,0,0-2.643.432A18.272,18.272,0,0,0,10.064-16.773Z" transform="translate(682 321)" fill="#fff"/>
    <path id="Trazado_2839" data-name="Trazado 2839" d="M5.47-25.379a4.157,4.157,0,0,1-1.6-1.386,2.969,2.969,0,0,1-.51-1.6,2.714,2.714,0,0,1,.8-1.933,2.884,2.884,0,0,1,2.188-.839,6.247,6.247,0,0,1,2.552.729,8.623,8.623,0,0,1,2.407,1.6,25.315,25.315,0,0,1,4.667-3.136,10.565,10.565,0,0,1,4.886-1.24,9.072,9.072,0,0,1,2.115.365,12.36,12.36,0,0,1,2.735,1.094,8.494,8.494,0,0,1,2.37,1.9,3.975,3.975,0,0,1,1.021,2.7,2.646,2.646,0,0,1-.8,2.006,2.744,2.744,0,0,1-1.969.766,2.278,2.278,0,0,1-1.422-.474q-.62-.474-1.24-1.021a10.272,10.272,0,0,0-1.313-.985,2.874,2.874,0,0,0-1.568-.438,4.906,4.906,0,0,0-2.224.62,18.527,18.527,0,0,0-2.407,1.5,24.382,24.382,0,0,0-2.3,1.9q-1.094,1.021-1.9,1.823v19.4A3.471,3.471,0,0,1,10.976.474a2.9,2.9,0,0,1-2.006.839,2.826,2.826,0,0,1-1.9-.766A3.686,3.686,0,0,1,5.98-1.823V-21.733a1.69,1.69,0,0,0-.036-.328,1.69,1.69,0,0,1-.036-.328,1.69,1.69,0,0,1,.036-.328,1.69,1.69,0,0,0,.036-.328V-25.16A4,4,0,0,0,5.47-25.379Z" transform="translate(704 320)" fill="#fff"/>
  </g>
</svg>
