<svg xmlns="http://www.w3.org/2000/svg" width="97.148" height="61.454" viewBox="0 0 97.148 61.454">
  <g id="Grupo_2181" data-name="Grupo 2181" transform="translate(-634.708 -466.463)">
    <path id="Trazado_2861" data-name="Trazado 2861" d="M43.951-58.537a4.38,4.38,0,0,1,3.16,1.313,3.5,3.5,0,0,1,1.021,2.674,3.515,3.515,0,0,1-.972,2.431,5.19,5.19,0,0,1-2.917,1.459q-1.75.1-3.987.1h-3.89l.1,35.006a17.719,17.719,0,0,1-2.625,9.627,16.831,16.831,0,0,1-3.112,3.7A18.992,18.992,0,0,1,26.692.535a22.937,22.937,0,0,1-4.57,1.75,18.694,18.694,0,0,1-4.813.632A17.114,17.114,0,0,1,10.939,1.7a13.368,13.368,0,0,1-5.3-3.841A14.2,14.2,0,0,1,4.57-3.5Q3.792-4.57,2.917-5.786T1.361-8.071A4.81,4.81,0,0,1,.681-9.335a4.38,4.38,0,0,1-.972-2.723A3.658,3.658,0,0,1,.729-14.683,3.528,3.528,0,0,1,3.4-15.752a5.038,5.038,0,0,1,3.014,1.07,10.448,10.448,0,0,1,1.459,1.8q.583.924,1.07,1.848t1.07,1.848a8.7,8.7,0,0,0,1.556,1.8,7.844,7.844,0,0,0,2.869,1.7,10.239,10.239,0,0,0,3.257.535,11.654,11.654,0,0,0,4.181-.778,9.828,9.828,0,0,0,3.5-2.236,8.268,8.268,0,0,0,1.07-1.07,6.733,6.733,0,0,0,.632-.924q.243-.438.486-.972t.535-1.313q.486-3.792.632-7.585t.146-7.585q0-2.625-.049-5.494t-.1-5.883q-.049-3.014-.146-5.931t-.194-5.543q-5.737.194-11.377.194t-11.377.1a4.8,4.8,0,0,1-3.014-1.507,3.453,3.453,0,0,1-.972-2.577q0-2.528,3.306-3.889,9.432-.1,19.253-.146t19.35-.243Z" transform="translate(635 525)" fill="#fff"/>
    <path id="Trazado_2862" data-name="Trazado 2862" d="M22.771-3.507a2.49,2.49,0,0,1,.559,1.576,1.844,1.844,0,0,1-.559,1.4A1.912,1.912,0,0,1,21.4,0a2.4,2.4,0,0,1-1.931-1.042A10.411,10.411,0,0,1,18.1-3.406a12.491,12.491,0,0,1-3.1,2.414A7.43,7.43,0,0,1,11.335,0,7.379,7.379,0,0,1,8.692-.483,9.276,9.276,0,0,1,6.328-1.8,10.067,10.067,0,0,1,4.4-3.761,8.227,8.227,0,0,1,3.151-6.1a14.669,14.669,0,0,1-.559-2.923q-.152-1.6-.152-3.329,0-2.084.1-4.066t.1-3.507a2.98,2.98,0,0,1,.813-1.525,1.837,1.837,0,0,1,1.271-.508,1.986,1.986,0,0,1,1.245.457,2.566,2.566,0,0,1,.839,1.423q0,2.389-.076,4.6t-.076,4.7A8.268,8.268,0,0,0,7.878-6.1a3.783,3.783,0,0,0,3.3,1.83,4.079,4.079,0,0,0,1.525-.3,5.948,5.948,0,0,0,1.423-.813,7.933,7.933,0,0,0,1.22-1.169q.559-.661,1.017-1.322a.967.967,0,0,1,.254-.178.967.967,0,0,0,.254-.178,43.05,43.05,0,0,1-.3-5.134q0-1.474.025-2.973a16.817,16.817,0,0,1,.254-2.745,5.311,5.311,0,0,1,.762-2.033,1.709,1.709,0,0,1,1.5-.788,1.935,1.935,0,0,1,1.372.585,2.25,2.25,0,0,1,.61,1.7,27.672,27.672,0,0,1-.178,2.846,33.268,33.268,0,0,0-.178,3.507q0,1.423.1,2.846A26.528,26.528,0,0,0,21.17-7.7a14.552,14.552,0,0,0,.61,2.364A6.286,6.286,0,0,0,22.771-3.507Z" transform="translate(683 489)" fill="#fff"/>
    <path id="Trazado_2863" data-name="Trazado 2863" d="M1.856-11.37a20.774,20.774,0,0,1,1.253-2.9,13.074,13.074,0,0,1,1.764-2.576,10.752,10.752,0,0,1,2.344-2,9.39,9.39,0,0,1,2.947-1.207,6.856,6.856,0,0,1,4.71.418A8.055,8.055,0,0,1,18.1-16.707a11.411,11.411,0,0,1,1.6,4.339A10.955,10.955,0,0,1,19.492-7.7a14.438,14.438,0,0,1-2.46,5.1A10.114,10.114,0,0,1,12.577.835a7.9,7.9,0,0,1-3.829.58A7.348,7.348,0,0,1,5.453.232,8.7,8.7,0,0,1,2.97-2.32,9.805,9.805,0,0,1,1.578-5.894a10.233,10.233,0,0,1-.162-2.46,18.369,18.369,0,0,1,.3-2.413ZM5.476-10.3a17.7,17.7,0,0,0-.255,1.787,8.377,8.377,0,0,0,.07,1.833A5.093,5.093,0,0,0,6.08-4.432,4.65,4.65,0,0,0,7.657-2.9a3.9,3.9,0,0,0,2.065.51,4.631,4.631,0,0,0,2.3-.719,7.133,7.133,0,0,0,2.436-2.413,12.273,12.273,0,0,0,1.369-3.2,7.575,7.575,0,0,0,.162-2.97,7,7,0,0,0-.951-2.785,4.265,4.265,0,0,0-2-1.74,3.8,3.8,0,0,0-2.97.162,6.513,6.513,0,0,0-2.924,2.367A13.815,13.815,0,0,0,5.476-10.3Z" transform="translate(712 522)" fill="#fff"/>
    <path id="Trazado_2864" data-name="Trazado 2864" d="M30.192-2.188A3.471,3.471,0,0,1,29.208.328a2.9,2.9,0,0,1-2.006.839A2.826,2.826,0,0,1,25.306.4a3.686,3.686,0,0,1-1.094-2.37q0-3.355-.036-6.673t-.036-6.673q0-2.407.036-4.813a29.131,29.131,0,0,0-.328-4.813,2.661,2.661,0,0,0-1.276-1.349,4.748,4.748,0,0,0-1.641-.255,10.821,10.821,0,0,0-4.886,1.2,9.514,9.514,0,0,0-3.792,3.318q-.8,1.24-1.276,2.078a6.23,6.23,0,0,0-.62,2.443v7.439q0,3.719.073,7.439A3.471,3.471,0,0,1,9.444-.109,2.9,2.9,0,0,1,7.439.729a2.826,2.826,0,0,1-1.9-.766,3.686,3.686,0,0,1-1.094-2.37V-9.189q0-3.282-.036-6.491t-.036-6.527v-6.819a4.275,4.275,0,0,1,1.167-2.188,2.636,2.636,0,0,1,1.823-.729,2.85,2.85,0,0,1,1.787.656,3.682,3.682,0,0,1,1.2,2.042v.583a16.7,16.7,0,0,1,4.777-2.881,14.416,14.416,0,0,1,5.36-1.057,10.777,10.777,0,0,1,5.069,1.24,9.153,9.153,0,0,1,3.829,4.011,6.825,6.825,0,0,1,.693,2.37,28.793,28.793,0,0,1,.219,2.99q.036,1.568-.036,3.209t-.073,3.1V-2.188Z" transform="translate(671 525)" fill="#fff"/>
    <path id="Trazado_2865" data-name="Trazado 2865" d="M6.133-1.308A1.946,1.946,0,0,1,5.581.1a1.627,1.627,0,0,1-1.124.47A1.585,1.585,0,0,1,3.393.143,2.066,2.066,0,0,1,2.78-1.186q-.041-3.843-.061-7.85t-.061-7.85a2.4,2.4,0,0,1,.654-1.227,1.478,1.478,0,0,1,1.022-.409,1.6,1.6,0,0,1,1,.368,2.064,2.064,0,0,1,.675,1.145q.041,3.843.061,7.85T6.133-1.308ZM2.371-23.549a2.207,2.207,0,0,1,.572-1.533,1.8,1.8,0,0,1,1.39-.634,1.867,1.867,0,0,1,1.41.634,2.163,2.163,0,0,1,.593,1.533,2.113,2.113,0,0,1-.593,1.492,1.867,1.867,0,0,1-1.41.634,1.8,1.8,0,0,1-1.39-.634A2.154,2.154,0,0,1,2.371-23.549Z" transform="translate(703 524)" fill="#fff"/>
  </g>
</svg>
