<svg xmlns="http://www.w3.org/2000/svg" width="85.296" height="100.146" viewBox="0 0 85.296 100.146">
  <g id="Grupo_2177" data-name="Grupo 2177" transform="translate(-1063.56 -233.977)">
    <path id="Trazado_2840" data-name="Trazado 2840" d="M70.594-2.917A4.628,4.628,0,0,1,69.282.438a3.869,3.869,0,0,1-2.674,1.118A3.949,3.949,0,0,1,64.031.535a4.457,4.457,0,0,1-1.41-3.16q-.486-4.667-1.215-9.87T59.752-23q-.924-5.3-2.042-10.453t-2.382-9.627q-1.848,4.473-3.7,9.383t-3.744,9.918q-1.9,5.008-3.744,9.967T40.354-4.376a4.449,4.449,0,0,1-3.4,1.848,5.074,5.074,0,0,1-3.209-1.556L14.488-41.715q-.486,4.667-.972,9.821t-.924,10.4q-.438,5.251-.924,10.4T10.7-1.264a5.494,5.494,0,0,1-1.75,2.431,3.748,3.748,0,0,1-2.236.778A3.678,3.678,0,0,1,4.181.875,4.641,4.641,0,0,1,2.82-2.236Q3.4-8.46,4.035-15.12T5.3-28.539Q5.931-35.3,6.564-42.007T7.779-54.939a4.886,4.886,0,0,1,1.507-2.723,3.691,3.691,0,0,1,2.48-.972,4.267,4.267,0,0,1,3.6,2.139q2.625,4.765,5.251,9.967t5.251,10.5q2.625,5.3,5.3,10.5t5.3,9.967q1.945-4.765,3.938-9.967t3.987-10.5q1.993-5.3,3.987-10.55t4.035-10.015a5.365,5.365,0,0,1,1.75-1.848,3.91,3.91,0,0,1,2.042-.583,3.681,3.681,0,0,1,2.285.875,4.823,4.823,0,0,1,1.6,2.528q1.75,6.126,3.355,12.738t3.014,13.37q1.41,6.758,2.48,13.516T70.594-2.917Z" transform="translate(1069 293)" fill="#fff"/>
    <path id="Trazado_2841" data-name="Trazado 2841" d="M22.924-2.186a.045.045,0,0,1-.051.051,2.047,2.047,0,0,1,.152,1.322,1.9,1.9,0,0,1-.585.991,2.115,2.115,0,0,1-1.118.483,2.522,2.522,0,0,1-1.5-.3,9.788,9.788,0,0,1-.864-.991,8.6,8.6,0,0,1-.712-1.093,19.077,19.077,0,0,1-2.186,1.6,4.753,4.753,0,0,1-2.338.788q-2.033.1-4.015.051A6.671,6.671,0,0,1,5.947-.61,7.486,7.486,0,0,1,3.685-3.151,9.281,9.281,0,0,1,2.669-6.277a11.9,11.9,0,0,1,.025-3.38,15.279,15.279,0,0,1,.864-3.3,7.3,7.3,0,0,1,.661-1.372q.407-.661.813-1.372A13.319,13.319,0,0,1,6.3-17.612a8.292,8.292,0,0,1,1.627-1.55q.661-.457,1.3-.915t1.3-.864a6.552,6.552,0,0,1,1.4-.635,16.062,16.062,0,0,1,2.033-.559,10.643,10.643,0,0,1,2.186-.229,5,5,0,0,1,1.855.3,1.964,1.964,0,0,1,1.4.356,2.81,2.81,0,0,1,1.042,1.474q0,3.456-.051,6.964A43.456,43.456,0,0,0,20.84-6.3a3.247,3.247,0,0,0,.381,1.093q.33.635.712,1.245t.686,1.118A1.893,1.893,0,0,1,22.924-2.186ZM16.469-5.693a.591.591,0,0,0,.152-.1.591.591,0,0,1,.152-.1,28.747,28.747,0,0,1-.635-6.328q.025-3.278.076-6.023a5.727,5.727,0,0,0-1.017.1,7.946,7.946,0,0,0-1.093.28q-.534.178-.966.33a6.03,6.03,0,0,0-.635.254,8.3,8.3,0,0,0-2.592,1.855,10.463,10.463,0,0,0-1.754,2.541A13.537,13.537,0,0,0,7.116-9.937,13.931,13.931,0,0,0,6.76-6.811,7.488,7.488,0,0,0,7.014-6a7.488,7.488,0,0,1,.254.813q.254.254.534.559a6.031,6.031,0,0,0,.585.559q.457.2.915.356l.915.3q.864,0,1.677.051a4.477,4.477,0,0,0,1.627-.2q.762-.508,1.5-1.017A17.452,17.452,0,0,0,16.469-5.693Z" transform="translate(1061 327)" fill="#fff"/>
    <path id="Trazado_2842" data-name="Trazado 2842" d="M1.856-11.37a20.774,20.774,0,0,1,1.253-2.9,13.074,13.074,0,0,1,1.764-2.576,10.752,10.752,0,0,1,2.344-2,9.39,9.39,0,0,1,2.947-1.207,6.856,6.856,0,0,1,4.71.418A8.055,8.055,0,0,1,18.1-16.707a11.411,11.411,0,0,1,1.6,4.339A10.955,10.955,0,0,1,19.492-7.7a14.438,14.438,0,0,1-2.46,5.1A10.114,10.114,0,0,1,12.577.835a7.9,7.9,0,0,1-3.829.58A7.348,7.348,0,0,1,5.453.232,8.7,8.7,0,0,1,2.97-2.32,9.805,9.805,0,0,1,1.578-5.894a10.233,10.233,0,0,1-.162-2.46,18.369,18.369,0,0,1,.3-2.413ZM5.476-10.3a17.7,17.7,0,0,0-.255,1.787,8.377,8.377,0,0,0,.07,1.833A5.093,5.093,0,0,0,6.08-4.432,4.65,4.65,0,0,0,7.657-2.9a3.9,3.9,0,0,0,2.065.51,4.631,4.631,0,0,0,2.3-.719,7.133,7.133,0,0,0,2.436-2.413,12.273,12.273,0,0,0,1.369-3.2,7.575,7.575,0,0,0,.162-2.97,7,7,0,0,0-.951-2.785,4.265,4.265,0,0,0-2-1.74,3.8,3.8,0,0,0-2.97.162,6.513,6.513,0,0,0-2.924,2.367A13.815,13.815,0,0,0,5.476-10.3Z" transform="translate(1129 326)" fill="#fff"/>
    <path id="Trazado_2843" data-name="Trazado 2843" d="M5.47-25.379a4.157,4.157,0,0,1-1.6-1.386,2.969,2.969,0,0,1-.51-1.6,2.714,2.714,0,0,1,.8-1.933,2.884,2.884,0,0,1,2.188-.839,6.247,6.247,0,0,1,2.552.729,8.623,8.623,0,0,1,2.407,1.6,25.315,25.315,0,0,1,4.667-3.136,10.565,10.565,0,0,1,4.886-1.24,9.072,9.072,0,0,1,2.115.365,12.36,12.36,0,0,1,2.735,1.094,8.494,8.494,0,0,1,2.37,1.9,3.975,3.975,0,0,1,1.021,2.7,2.646,2.646,0,0,1-.8,2.006,2.744,2.744,0,0,1-1.969.766,2.278,2.278,0,0,1-1.422-.474q-.62-.474-1.24-1.021a10.272,10.272,0,0,0-1.313-.985,2.874,2.874,0,0,0-1.568-.438,4.906,4.906,0,0,0-2.224.62,18.527,18.527,0,0,0-2.407,1.5,24.382,24.382,0,0,0-2.3,1.9q-1.094,1.021-1.9,1.823v19.4A3.471,3.471,0,0,1,10.976.474a2.9,2.9,0,0,1-2.006.839,2.826,2.826,0,0,1-1.9-.766A3.686,3.686,0,0,1,5.98-1.823V-21.733a1.69,1.69,0,0,0-.036-.328,1.69,1.69,0,0,1-.036-.328,1.69,1.69,0,0,1,.036-.328,1.69,1.69,0,0,0,.036-.328V-25.16A4,4,0,0,0,5.47-25.379Z" transform="translate(1086 330)" fill="#fff"/>
    <path id="Trazado_2844" data-name="Trazado 2844" d="M3.312.123A1.4,1.4,0,0,1,1.962-.7a1.442,1.442,0,0,1-.245-.818,1.442,1.442,0,0,1,.245-.818.8.8,0,0,0,.061-.164.362.362,0,0,1,.1-.164,63.675,63.675,0,0,1,6.48-8.954q3.7-4.293,7.461-8.218l-4.518.082q-2.228.041-4.518.041H5.294q-.879,0-1.738-.041a2.066,2.066,0,0,1-1.329-.613A1.585,1.585,0,0,1,1.8-21.423a1.627,1.627,0,0,1,.47-1.124A1.946,1.946,0,0,1,3.68-23.1q1.186.082,2.33.082H8.3q3.107,0,6.214-.082t6.173-.082q1.431.45,1.431,1.635a1.852,1.852,0,0,1-.123.654,2.156,2.156,0,0,1-.409.654,43.651,43.651,0,0,0-5.928,5.622q-2.7,3.087-5.274,6.276L8.5-5.969q-.94,1.186-1.8,2.412h.9q1.962,0,3.945.123t3.986.123q1.431,0,2.841-.123a17.477,17.477,0,0,0,2.841-.491h.123a1.929,1.929,0,0,1,1.39.47,1.5,1.5,0,0,1,.491,1.124,1.644,1.644,0,0,1-.245.859,2.184,2.184,0,0,1-.818.736q-.94.245-1.84.45A13.613,13.613,0,0,1,18.48,0a8.085,8.085,0,0,1-1.145.082H16.19Q14.1.082,12-.082T7.809-.245q-1.063,0-2.167.082A18.83,18.83,0,0,0,3.475.123Z" transform="translate(1105 334)" fill="#fff"/>
  </g>
</svg>
