<svg xmlns="http://www.w3.org/2000/svg" width="130.706" height="73.132" viewBox="0 0 130.706 73.132">
  <g id="Grupo_2184" data-name="Grupo 2184" transform="translate(-1041.376 -665.57)">
    <path id="Trazado_2883" data-name="Trazado 2883" d="M44.632-56.981A5.7,5.7,0,0,1,46.188-59.9a3.515,3.515,0,0,1,2.431-.972A3.8,3.8,0,0,1,51-60a4.909,4.909,0,0,1,1.6,2.723q0,13.9-.194,26.935T51.439-3.4l.1.1h-.1a4.326,4.326,0,0,0-.1.827v.729a5.082,5.082,0,0,1-1.6,2.334,3.544,3.544,0,0,1-2.188.778A4.647,4.647,0,0,1,44.243-.194a6.357,6.357,0,0,0-.389-.681l-.389-.583h-.1v-.194q-3.5-5.931-7.2-11.328t-7.585-10.6q-3.89-5.2-7.925-10.307T12.349-44.34V-24.65q0,4.91.049,10.259T12.446-2.82A4.628,4.628,0,0,1,11.134.535,3.869,3.869,0,0,1,8.46,1.653,3.769,3.769,0,0,1,5.931.632a4.914,4.914,0,0,1-1.459-3.16q0-13.127-.049-26.594T4.376-55.717A5.036,5.036,0,0,1,5.834-58.44a3.515,3.515,0,0,1,2.431-.972,5.228,5.228,0,0,1,2.917,1.07q4.473,5.348,8.751,10.453t8.411,10.259q4.133,5.154,8.022,10.55T43.951-15.85q.389-10.7.535-20.517T44.632-56.981Z" transform="translate(1037 734)" fill="#fff"/>
    <path id="Trazado_2884" data-name="Trazado 2884" d="M2.077-12.724a23.247,23.247,0,0,1,1.4-3.246,14.631,14.631,0,0,1,1.973-2.882,12.032,12.032,0,0,1,2.623-2.233,10.507,10.507,0,0,1,3.3-1.35,7.673,7.673,0,0,1,5.271.467A9.013,9.013,0,0,1,20.254-18.7a12.769,12.769,0,0,1,1.792,4.856,12.259,12.259,0,0,1-.234,5.219A16.157,16.157,0,0,1,19.06-2.908,11.318,11.318,0,0,1,14.074.935a8.841,8.841,0,0,1-4.285.649A8.222,8.222,0,0,1,6.1.26,9.73,9.73,0,0,1,3.324-2.6a10.973,10.973,0,0,1-1.558-4,11.451,11.451,0,0,1-.182-2.752,20.555,20.555,0,0,1,.338-2.7Zm4.051,1.194a19.8,19.8,0,0,0-.286,2A9.375,9.375,0,0,0,5.92-7.478,5.7,5.7,0,0,0,6.8-4.96,5.2,5.2,0,0,0,8.569-3.246a4.368,4.368,0,0,0,2.311.571,5.182,5.182,0,0,0,2.571-.8,7.982,7.982,0,0,0,2.727-2.7,13.734,13.734,0,0,0,1.532-3.583,8.477,8.477,0,0,0,.182-3.324A7.831,7.831,0,0,0,16.827-16.2a4.773,4.773,0,0,0-2.233-1.948,4.255,4.255,0,0,0-3.324.182A7.289,7.289,0,0,0,8-15.32,15.46,15.46,0,0,0,6.128-11.529Z" transform="translate(1093 696)" fill="#fff"/>
    <path id="Trazado_2885" data-name="Trazado 2885" d="M18.042-24.075a2.893,2.893,0,0,1,1.35-1.293,2.258,2.258,0,0,1,1.494-.115,2.155,2.155,0,0,1,1.207.919,2.869,2.869,0,0,1,.431,1.81q-.8,3.1-1.867,6.062t-2.1,5.947q-.977,2.758-1.925,5.43T14.537,0a2.48,2.48,0,0,1-2.3,1.092A2.545,2.545,0,0,1,10.285-.517q-2.069-5.459-4.223-10.8t-4.8-10.515a2.678,2.678,0,0,1-.287-2.04A2.334,2.334,0,0,1,1.954-25.2a2.235,2.235,0,0,1,1.638-.259,2.73,2.73,0,0,1,1.7,1.207Q7.3-20.225,9.078-16.088T12.526-7.7q.4-1.092.776-2.183t.776-2.183q1.034-2.988,2.069-5.947T18.042-24.075Z" transform="translate(1091 728)" fill="#fff"/>
    <path id="Trazado_2886" data-name="Trazado 2886" d="M6.961-1.485a2.209,2.209,0,0,1-.627,1.6A1.846,1.846,0,0,1,5.059.65,1.8,1.8,0,0,1,3.852.162a2.345,2.345,0,0,1-.7-1.508q-.046-4.362-.07-8.91t-.07-8.91a2.72,2.72,0,0,1,.743-1.392,1.678,1.678,0,0,1,1.16-.464,1.814,1.814,0,0,1,1.137.418,2.343,2.343,0,0,1,.766,1.3q.046,4.362.07,8.91T6.961-1.485ZM2.692-26.731a2.5,2.5,0,0,1,.65-1.74,2.049,2.049,0,0,1,1.578-.719,2.119,2.119,0,0,1,1.6.719,2.456,2.456,0,0,1,.673,1.74,2.4,2.4,0,0,1-.673,1.694,2.119,2.119,0,0,1-1.6.719,2.049,2.049,0,0,1-1.578-.719A2.445,2.445,0,0,1,2.692-26.731Z" transform="translate(1118 702)" fill="#fff"/>
    <path id="Trazado_2887" data-name="Trazado 2887" d="M17.452-16.456a.339.339,0,0,1,.059-.234,1.523,1.523,0,0,1-.059-.469V-17.8a4.842,4.842,0,0,0-2.225-2.635,7.448,7.448,0,0,0-3.338-.878,9.074,9.074,0,0,0-2.46,1.23L8.2-18.506a2.251,2.251,0,0,1-.351.381,4.119,4.119,0,0,1-.351.264v16.1A2.787,2.787,0,0,1,6.706.264,2.33,2.33,0,0,1,5.1.937,2.27,2.27,0,0,1,3.572.322a2.96,2.96,0,0,1-.878-1.9V-24.245a3.256,3.256,0,0,1,.937-1.728A2.178,2.178,0,0,1,5.1-26.529a2.3,2.3,0,0,1,1.376.5,2.771,2.771,0,0,1,.966,1.552,12.712,12.712,0,0,1,2.255-1.2,7.079,7.079,0,0,1,2.782-.556,9.685,9.685,0,0,1,4.3,1.083,10.522,10.522,0,0,1,3.543,2.723q.644-.644,1.376-1.318a13.414,13.414,0,0,1,1.552-1.23,10.351,10.351,0,0,1,1.7-.937A4.388,4.388,0,0,1,26.7-26.3a10.743,10.743,0,0,1,3.572.615,10.775,10.775,0,0,1,3.133,1.7,9.074,9.074,0,0,1,2.225,2.518,5.833,5.833,0,0,1,.849,3.016.408.408,0,0,1-.029.176.408.408,0,0,0-.029.176.169.169,0,0,1,.059.117.169.169,0,0,0,.059.117V-1.991a2.787,2.787,0,0,1-.791,2.02A2.33,2.33,0,0,1,34.143.7,2.27,2.27,0,0,1,32.62.088a2.96,2.96,0,0,1-.878-1.9V-17.862a4.5,4.5,0,0,0-1.991-2.782,5.6,5.6,0,0,0-2.694-.732,5.124,5.124,0,0,0-2.752.761,5.617,5.617,0,0,0-2.05,2.811V-2.05a2.787,2.787,0,0,1-.791,2.02,2.33,2.33,0,0,1-1.61.673A2.27,2.27,0,0,1,18.33.029a2.96,2.96,0,0,1-.878-1.9Z" transform="translate(1113 733)" fill="#fff"/>
    <path id="Trazado_2888" data-name="Trazado 2888" d="M17.37-5.171a2.164,2.164,0,0,1,1.591-.088,1.732,1.732,0,0,1,.95.84A1.73,1.73,0,0,1,20-3.138a2.058,2.058,0,0,1-1.039,1.193A28.267,28.267,0,0,1,15.823-.4a14.383,14.383,0,0,1-3.4.972,10.546,10.546,0,0,1-3.4-.022A8.085,8.085,0,0,1,5.79-.8a8.122,8.122,0,0,1-2.829-3.47A11.638,11.638,0,0,1,1.945-8.818a11.226,11.226,0,0,1,.862-4.552,7.754,7.754,0,0,1,2.851-3.514,15.518,15.518,0,0,1,4.42-2.055,9.7,9.7,0,0,1,4.818-.155,4.8,4.8,0,0,1,2.166,1.127,7.045,7.045,0,0,1,1.569,1.989,5.447,5.447,0,0,1,.641,2.387,4.22,4.22,0,0,1-.619,2.365,6.305,6.305,0,0,1-2.166,2.1,16.855,16.855,0,0,1-3.072,1.459,31.458,31.458,0,0,1-3.315.994q-1.657.4-2.9.751a2.391,2.391,0,0,1-1.017.044,5.761,5.761,0,0,0,1.967,2.32,4.941,4.941,0,0,0,3.249.773,8.06,8.06,0,0,0,3.116-.862Q16.088-4.42,17.37-5.171ZM8.751-14.586A5.474,5.474,0,0,0,6.32-12.221a6.835,6.835,0,0,0-.8,3.2,2.87,2.87,0,0,1,.663-.354q.8-.221,1.613-.464T9.459-10.3q.53-.133,1.436-.4t1.878-.619a10.884,10.884,0,0,0,1.768-.818A2.481,2.481,0,0,0,15.6-13.171,2.059,2.059,0,0,0,14.9-15.16a3.347,3.347,0,0,0-1.9-.53,7.643,7.643,0,0,0-2.3.376A15.889,15.889,0,0,0,8.751-14.586Z" transform="translate(1130 700)" fill="#fff"/>
    <path id="Trazado_2889" data-name="Trazado 2889" d="M5.645-.69a2.274,2.274,0,0,1-1.379.366A1.641,1.641,0,0,1,3.232-.776,1.641,1.641,0,0,1,2.78-1.81a2.274,2.274,0,0,1,.366-1.379l.129-.129V-25.727a2.2,2.2,0,0,1,.668-1.25,1.669,1.669,0,0,1,1.034-.452,1.631,1.631,0,0,1,1.056.366,2.327,2.327,0,0,1,.776,1.207V-15.6a7.863,7.863,0,0,1,2.025-1.422,8.135,8.135,0,0,1,1.875-.8,13.943,13.943,0,0,1,2-.366,4.019,4.019,0,0,1,2.112.215,13.426,13.426,0,0,1,1.939.948A4.778,4.778,0,0,1,18.66-15a10.016,10.016,0,0,1,.9,2.78A15.083,15.083,0,0,1,19.78-9.2a18.667,18.667,0,0,1-.259,2.736,4.2,4.2,0,0,1-.388,1.314q-.3.625-.646,1.228A6.148,6.148,0,0,1,16.85-1.875,8.563,8.563,0,0,1,14.544-.539a11.813,11.813,0,0,1-2.629.69A12.061,12.061,0,0,1,9.351.259a13.066,13.066,0,0,1-1.9-.3A6.232,6.232,0,0,1,5.688-.776.124.124,0,0,1,5.645-.69Zm1.164-9.567v6.033a5.061,5.061,0,0,0,.474.259.675.675,0,0,0,.172.129.675.675,0,0,1,.172.129,6.684,6.684,0,0,0,4.266.3,7.217,7.217,0,0,0,3.577-2.37A11.376,11.376,0,0,0,16.1-7.692a8.219,8.219,0,0,0,.194-1.767,9.542,9.542,0,0,0-.172-1.788,11.9,11.9,0,0,0-.56-1.939,2.663,2.663,0,0,1-.366-.452,2.663,2.663,0,0,0-.366-.452,2.228,2.228,0,0,1-.409-.215,2.228,2.228,0,0,0-.409-.215q-.215-.043-.474-.086t-.474-.086a7.332,7.332,0,0,0-3.4,1.4,12.973,12.973,0,0,0-2.5,2.693Z" transform="translate(1151 693)" fill="#fff"/>
    <path id="Trazado_2890" data-name="Trazado 2890" d="M17.37-5.171a2.164,2.164,0,0,1,1.591-.088,1.732,1.732,0,0,1,.95.84A1.73,1.73,0,0,1,20-3.138a2.058,2.058,0,0,1-1.039,1.193A28.267,28.267,0,0,1,15.823-.4a14.383,14.383,0,0,1-3.4.972,10.546,10.546,0,0,1-3.4-.022A8.085,8.085,0,0,1,5.79-.8a8.122,8.122,0,0,1-2.829-3.47A11.638,11.638,0,0,1,1.945-8.818a11.226,11.226,0,0,1,.862-4.552,7.754,7.754,0,0,1,2.851-3.514,15.518,15.518,0,0,1,4.42-2.055,9.7,9.7,0,0,1,4.818-.155,4.8,4.8,0,0,1,2.166,1.127,7.045,7.045,0,0,1,1.569,1.989,5.447,5.447,0,0,1,.641,2.387,4.22,4.22,0,0,1-.619,2.365,6.305,6.305,0,0,1-2.166,2.1,16.855,16.855,0,0,1-3.072,1.459,31.458,31.458,0,0,1-3.315.994q-1.657.4-2.9.751a2.391,2.391,0,0,1-1.017.044,5.761,5.761,0,0,0,1.967,2.32,4.941,4.941,0,0,0,3.249.773,8.06,8.06,0,0,0,3.116-.862Q16.088-4.42,17.37-5.171ZM8.751-14.586A5.474,5.474,0,0,0,6.32-12.221a6.835,6.835,0,0,0-.8,3.2,2.87,2.87,0,0,1,.663-.354q.8-.221,1.613-.464T9.459-10.3q.53-.133,1.436-.4t1.878-.619a10.884,10.884,0,0,0,1.768-.818A2.481,2.481,0,0,0,15.6-13.171,2.059,2.059,0,0,0,14.9-15.16a3.347,3.347,0,0,0-1.9-.53,7.643,7.643,0,0,0-2.3.376A15.889,15.889,0,0,0,8.751-14.586Z" transform="translate(1152 738)" fill="#fff"/>
    <path id="Trazado_2891" data-name="Trazado 2891" d="M3.149-14.612a2.394,2.394,0,0,1-.924-.8,1.709,1.709,0,0,1-.294-.924,1.563,1.563,0,0,1,.462-1.113,1.661,1.661,0,0,1,1.26-.483,3.6,3.6,0,0,1,1.47.42,4.965,4.965,0,0,1,1.386.924A14.575,14.575,0,0,1,9.2-18.391a6.083,6.083,0,0,1,2.813-.714,5.223,5.223,0,0,1,1.218.21,7.116,7.116,0,0,1,1.575.63,4.891,4.891,0,0,1,1.365,1.092,2.289,2.289,0,0,1,.588,1.554,1.523,1.523,0,0,1-.462,1.155,1.58,1.58,0,0,1-1.134.441,1.311,1.311,0,0,1-.819-.273q-.357-.273-.714-.588a5.914,5.914,0,0,0-.756-.567,1.655,1.655,0,0,0-.9-.252,2.825,2.825,0,0,0-1.281.357,10.667,10.667,0,0,0-1.386.861,14.038,14.038,0,0,0-1.323,1.092q-.63.588-1.092,1.05V-1.176A2,2,0,0,1,6.319.273,1.67,1.67,0,0,1,5.165.756,1.627,1.627,0,0,1,4.073.315a2.122,2.122,0,0,1-.63-1.365V-12.513a.973.973,0,0,0-.021-.189.973.973,0,0,1-.021-.189.973.973,0,0,1,.021-.189.973.973,0,0,0,.021-.189v-1.218A2.3,2.3,0,0,0,3.149-14.612Z" transform="translate(1152 716)" fill="#fff"/>
  </g>
</svg>
