<svg xmlns="http://www.w3.org/2000/svg" width="113.73" height="63.856" viewBox="0 0 113.73 63.856">
  <g id="Grupo_2182" data-name="Grupo 2182" transform="translate(-628.376 -672.575)">
    <path id="Trazado_2866" data-name="Trazado 2866" d="M50.175-26.157q.292-1.945.535-3.938a33.3,33.3,0,0,0,.243-4.035,28.266,28.266,0,0,0-.486-5.154,15.565,15.565,0,0,0-1.75-4.862A15.188,15.188,0,0,0,42.2-50.564,19.06,19.06,0,0,0,33.255-52.8a16.349,16.349,0,0,0-9.918,3.209,22.593,22.593,0,0,0-4.813,4.959,32.615,32.615,0,0,0-3.5,6.223,36.342,36.342,0,0,0-2.139,6.758,31.784,31.784,0,0,0-.729,6.564,26.776,26.776,0,0,0,1.021,7.439,17.219,17.219,0,0,0,3.209,6.223A16.55,16.55,0,0,0,21.878-7.1a17.2,17.2,0,0,0,7.779,1.653A15.03,15.03,0,0,0,33.4-5.931a14.2,14.2,0,0,0,3.452-1.361,21.462,21.462,0,0,0,5.008-3.792A29.132,29.132,0,0,0,45.7-15.947a33.453,33.453,0,0,0,2.82-5.591,54.253,54.253,0,0,0,1.945-5.883Zm7.779.972a51.454,51.454,0,0,1-2.48,7.2,47.513,47.513,0,0,1-3.792,7.2A35.984,35.984,0,0,1,46.625-4.57,20.38,20.38,0,0,1,40.354-.292L37.631.729a21.486,21.486,0,0,1-2.334.729q-1.167.292-2.48.535a24.208,24.208,0,0,1-2.966.34,3.056,3.056,0,0,0-.486.049,3.543,3.543,0,0,1-.583.049A17.1,17.1,0,0,1,23.629,1.6Q21,.778,18.67,0A18.151,18.151,0,0,1,11.96-4.181a23.15,23.15,0,0,1-4.424-6.175A28.325,28.325,0,0,1,5.1-17.7a42.126,42.126,0,0,1-.729-7.779q0-1.459.1-2.869t.292-2.771a40.768,40.768,0,0,1,1.7-6.709,46.392,46.392,0,0,1,3.063-7.05,39.513,39.513,0,0,1,4.23-6.369,22.035,22.035,0,0,1,5.1-4.667,26.582,26.582,0,0,1,7.293-3.355,28.372,28.372,0,0,1,7.876-1.118A26.06,26.06,0,0,1,46.48-57.273a22.256,22.256,0,0,1,9.238,9.529,23.681,23.681,0,0,1,2.334,6.564,35.854,35.854,0,0,1,.681,6.952q0,2.236-.194,4.522T57.954-25.185Z" transform="translate(624 734)" fill="#fff"/>
    <path id="Trazado_2867" data-name="Trazado 2867" d="M16.336-2.516a1.787,1.787,0,0,1,.4,1.13,1.323,1.323,0,0,1-.4,1A1.372,1.372,0,0,1,15.351,0a1.718,1.718,0,0,1-1.386-.748,7.469,7.469,0,0,1-.985-1.7A8.961,8.961,0,0,1,10.757-.711,5.33,5.33,0,0,1,8.131,0a5.294,5.294,0,0,1-1.9-.346,6.655,6.655,0,0,1-1.7-.948A7.222,7.222,0,0,1,3.154-2.7a5.9,5.9,0,0,1-.893-1.677,10.524,10.524,0,0,1-.4-2.1Q1.75-7.621,1.75-8.861q0-1.5.073-2.917T1.9-14.294a2.137,2.137,0,0,1,.583-1.094,1.318,1.318,0,0,1,.912-.365,1.425,1.425,0,0,1,.893.328,1.841,1.841,0,0,1,.6,1.021q0,1.714-.055,3.3T4.777-7.73a5.931,5.931,0,0,0,.875,3.355,2.714,2.714,0,0,0,2.37,1.313,2.926,2.926,0,0,0,1.094-.219,4.267,4.267,0,0,0,1.021-.583,5.691,5.691,0,0,0,.875-.839q.4-.474.729-.948a.694.694,0,0,1,.182-.128.694.694,0,0,0,.182-.128,30.884,30.884,0,0,1-.219-3.683q0-1.057.018-2.133a12.065,12.065,0,0,1,.182-1.969,3.81,3.81,0,0,1,.547-1.459,1.226,1.226,0,0,1,1.076-.565,1.388,1.388,0,0,1,.985.419,1.614,1.614,0,0,1,.438,1.222A19.852,19.852,0,0,1,15-12.033a23.866,23.866,0,0,0-.128,2.516q0,1.021.073,2.042a19.031,19.031,0,0,0,.237,1.951,10.439,10.439,0,0,0,.438,1.7A4.509,4.509,0,0,0,16.336-2.516Z" transform="translate(682 722)" fill="#fff"/>
    <path id="Trazado_2868" data-name="Trazado 2868" d="M6.08-.743a2.449,2.449,0,0,1-1.485.394A1.767,1.767,0,0,1,3.481-.835a1.767,1.767,0,0,1-.487-1.114,2.449,2.449,0,0,1,.394-1.485l.139-.139V-27.706a2.364,2.364,0,0,1,.719-1.346,1.8,1.8,0,0,1,1.114-.487,1.756,1.756,0,0,1,1.137.394,2.506,2.506,0,0,1,.835,1.3V-16.8a8.467,8.467,0,0,1,2.181-1.531,8.761,8.761,0,0,1,2.019-.859,15.015,15.015,0,0,1,2.158-.394,4.328,4.328,0,0,1,2.274.232,14.459,14.459,0,0,1,2.088,1.021A5.145,5.145,0,0,1,20.1-16.15a10.786,10.786,0,0,1,.975,2.993A16.243,16.243,0,0,1,21.3-9.908a20.1,20.1,0,0,1-.278,2.947,4.526,4.526,0,0,1-.418,1.415q-.325.673-.7,1.323a6.621,6.621,0,0,1-1.764,2.2A9.221,9.221,0,0,1,15.663-.58a12.721,12.721,0,0,1-2.831.743,12.989,12.989,0,0,1-2.761.116A14.071,14.071,0,0,1,8.029-.046a6.711,6.711,0,0,1-1.9-.789A.134.134,0,0,1,6.08-.743Zm1.253-10.3v6.5a5.45,5.45,0,0,0,.51.278.727.727,0,0,0,.186.139.727.727,0,0,1,.186.139,7.2,7.2,0,0,0,4.594.325,7.772,7.772,0,0,0,3.852-2.552,12.251,12.251,0,0,0,.673-2.065,8.851,8.851,0,0,0,.209-1.9,10.276,10.276,0,0,0-.186-1.926,12.817,12.817,0,0,0-.6-2.088,2.868,2.868,0,0,1-.394-.487,2.868,2.868,0,0,0-.394-.487,2.4,2.4,0,0,1-.441-.232,2.4,2.4,0,0,0-.441-.232q-.232-.046-.51-.093t-.51-.093A7.9,7.9,0,0,0,10.4-14.317a13.971,13.971,0,0,0-2.692,2.9Z" transform="translate(698 705)" fill="#fff"/>
    <path id="Trazado_2869" data-name="Trazado 2869" d="M13.967-4.773a2.131,2.131,0,0,1,1.481-.575,1.74,1.74,0,0,1,1.171.486A1.74,1.74,0,0,1,17.1-3.691,2.131,2.131,0,0,1,16.53-2.21,8.1,8.1,0,0,1,13.1.044,8.223,8.223,0,0,1,9.215.42,7.716,7.716,0,0,1,5.657-1.1,7.317,7.317,0,0,1,3.227-4.464a11.793,11.793,0,0,1-.707-2.519,11.15,11.15,0,0,1-.133-2.608,13.681,13.681,0,0,1,.994-4.265,11.983,11.983,0,0,1,2.343-3.735,8.816,8.816,0,0,1,3.492-2.32,6.713,6.713,0,0,1,4.4.022,11.214,11.214,0,0,1,2.166.972,9.386,9.386,0,0,1,1.856,1.459,2.428,2.428,0,0,1,.486,1.37,1.563,1.563,0,0,1-.376,1.083,1.81,1.81,0,0,1-1.017.552,2.209,2.209,0,0,1-1.436-.265,5.872,5.872,0,0,0-2.829-1.746,4.015,4.015,0,0,0-2.541.243,5.507,5.507,0,0,0-2.077,1.7,8.763,8.763,0,0,0-1.392,2.652,9.853,9.853,0,0,0-.486,3.094A7.164,7.164,0,0,0,6.586-5.79a4.462,4.462,0,0,0,1.436,1.9,3.944,3.944,0,0,0,1.923.773,4.431,4.431,0,0,0,2.1-.309A5.028,5.028,0,0,0,13.967-4.773Z" transform="translate(646 713)" fill="#fff"/>
    <path id="Trazado_2870" data-name="Trazado 2870" d="M5.768-17.5a2.513,2.513,0,0,1-1.616-.746,1.927,1.927,0,0,1-.522-1.293A2.1,2.1,0,0,1,4.2-20.909a2.129,2.129,0,0,1,1.715-.671H8.7v-7.856a2.915,2.915,0,0,1,.8-1.492,1.8,1.8,0,0,1,1.243-.5,1.943,1.943,0,0,1,1.218.448,2.51,2.51,0,0,1,.82,1.392v8.006h4.773a2.51,2.51,0,0,1,1.392.82,1.943,1.943,0,0,1,.448,1.218,1.8,1.8,0,0,1-.5,1.243,2.915,2.915,0,0,1-1.492.8H12.779q-.05,3.829,0,7.881t.05,7.881a2.129,2.129,0,0,1-.671,1.715A2.1,2.1,0,0,1,10.79.547,1.927,1.927,0,0,1,9.5.025a2.513,2.513,0,0,1-.746-1.616q0-3.878-.025-7.956T8.7-17.5Z" transform="translate(680 704)" fill="#fff"/>
    <path id="Trazado_2871" data-name="Trazado 2871" d="M2.735-12.69a2.079,2.079,0,0,1-.8-.693,1.484,1.484,0,0,1-.255-.8,1.357,1.357,0,0,1,.4-.966,1.442,1.442,0,0,1,1.094-.419,3.124,3.124,0,0,1,1.276.365,4.311,4.311,0,0,1,1.2.8,12.657,12.657,0,0,1,2.334-1.568,5.282,5.282,0,0,1,2.443-.62,4.536,4.536,0,0,1,1.057.182,6.18,6.18,0,0,1,1.367.547,4.247,4.247,0,0,1,1.185.948,1.987,1.987,0,0,1,.51,1.349,1.323,1.323,0,0,1-.4,1,1.372,1.372,0,0,1-.985.383,1.139,1.139,0,0,1-.711-.237q-.31-.237-.62-.51a5.136,5.136,0,0,0-.656-.492,1.437,1.437,0,0,0-.784-.219,2.453,2.453,0,0,0-1.112.31,9.264,9.264,0,0,0-1.2.748,12.191,12.191,0,0,0-1.149.948q-.547.51-.948.912v9.7A1.735,1.735,0,0,1,5.488.237a1.451,1.451,0,0,1-1,.419A1.413,1.413,0,0,1,3.537.273,1.843,1.843,0,0,1,2.99-.912v-9.955a.845.845,0,0,0-.018-.164.845.845,0,0,1-.018-.164.845.845,0,0,1,.018-.164.845.845,0,0,0,.018-.164V-12.58A2,2,0,0,0,2.735-12.69Z" transform="translate(701 725)" fill="#fff"/>
    <path id="Trazado_2872" data-name="Trazado 2872" d="M22.581-6.723a2.813,2.813,0,0,1,2.069-.115,2.251,2.251,0,0,1,1.235,1.092A2.249,2.249,0,0,1,26-4.08a2.675,2.675,0,0,1-1.35,1.551A36.747,36.747,0,0,1,20.57-.517,18.7,18.7,0,0,1,16.146.747,13.71,13.71,0,0,1,11.722.718,10.51,10.51,0,0,1,7.527-1.034,10.559,10.559,0,0,1,3.85-5.545a15.129,15.129,0,0,1-1.322-5.918,14.594,14.594,0,0,1,1.12-5.918,10.08,10.08,0,0,1,3.706-4.568A20.174,20.174,0,0,1,13.1-24.621a12.614,12.614,0,0,1,6.263-.2,6.238,6.238,0,0,1,2.815,1.465,9.159,9.159,0,0,1,2.04,2.586,7.082,7.082,0,0,1,.833,3.1,5.486,5.486,0,0,1-.8,3.074,8.2,8.2,0,0,1-2.815,2.729,21.911,21.911,0,0,1-3.993,1.9,40.9,40.9,0,0,1-4.309,1.293q-2.155.517-3.764.977a3.108,3.108,0,0,1-1.322.057A7.489,7.489,0,0,0,10.6-4.625,6.424,6.424,0,0,0,14.824-3.62a10.478,10.478,0,0,0,4.051-1.12Q20.915-5.746,22.581-6.723Zm-11.2-12.239a7.116,7.116,0,0,0-3.16,3.074,8.885,8.885,0,0,0-1.034,4.166,3.73,3.73,0,0,1,.862-.46q1.034-.287,2.1-.6t2.155-.6q.69-.172,1.867-.517t2.442-.8a14.149,14.149,0,0,0,2.3-1.063,3.225,3.225,0,0,0,1.379-1.35,2.677,2.677,0,0,0-.919-2.586,4.35,4.35,0,0,0-2.471-.69,9.936,9.936,0,0,0-2.988.488A20.655,20.655,0,0,0,11.377-18.961Z" transform="translate(716 725)" fill="#fff"/>
  </g>
</svg>
