<svg xmlns="http://www.w3.org/2000/svg" width="129.053" height="87.244" viewBox="0 0 129.053 87.244">
  <g id="Grupo_2183" data-name="Grupo 2183" transform="translate(-192.029 -660.116)">
    <path id="Trazado_2873" data-name="Trazado 2873" d="M6.612-7.39a6.456,6.456,0,0,1-.583-2.528A3.616,3.616,0,0,1,7.05-12.592a3.493,3.493,0,0,1,2.577-1.021,5.038,5.038,0,0,1,3.014,1.07,15.421,15.421,0,0,0,3.841,3.257,20,20,0,0,0,4.667,2.042,29.743,29.743,0,0,0,5.056,1.021,44.522,44.522,0,0,0,5.008.292q1.653-.583,2.285-.729A4.677,4.677,0,0,0,34.519-7a5.1,5.1,0,0,0,.875-.583q.486-.389,1.848-1.361.486-.681.875-1.264t.875-1.264l.875-2.625v-1.313a11.461,11.461,0,0,0-.1-1.41,9.079,9.079,0,0,0-.486-1.313q-.292-.632-.583-1.313-.583-.681-1.118-1.264t-1.118-1.264q-.875-.486-1.75-1.07a6.617,6.617,0,0,0-1.945-.875,44.712,44.712,0,0,0-7.341-1.9,56.951,56.951,0,0,1-6.32-1.361,19.432,19.432,0,0,1-5.591-2.577,19.269,19.269,0,0,1-5.154-5.64,4.72,4.72,0,0,1-.583-1.167,10.966,10.966,0,0,1-.194-1.361q-.1-.778-.146-1.507T7.39-40.84a12.879,12.879,0,0,1,.34-3.112,11.3,11.3,0,0,1,1.021-2.625,16.487,16.487,0,0,1,1.75-2.577q1.07-1.313,2.528-2.869a14.277,14.277,0,0,1,3.792-2.869,22.1,22.1,0,0,1,4.473-1.75,29.325,29.325,0,0,1,4.813-.875q2.48-.243,4.813-.243h1.41a9.285,9.285,0,0,1,1.313.1,13.318,13.318,0,0,1,4.23,1.07,29.712,29.712,0,0,0,4.133,1.459,4.535,4.535,0,0,1,2.236,3.792,3.541,3.541,0,0,1-1.118,2.577,4.274,4.274,0,0,1-3.16,1.118,2.253,2.253,0,0,1-.438-.049,2.253,2.253,0,0,0-.438-.049q-3.112-.972-5.494-1.507a21.065,21.065,0,0,0-4.619-.535,15.581,15.581,0,0,0-4.765.778,29.989,29.989,0,0,0-5.64,2.625,18,18,0,0,1-1.167,1.41q-.583.632-1.167,1.313-.292.583-.535,1.167t-.438,1.167q0,.583.049,1.167a9.5,9.5,0,0,0,.146,1.07,8.848,8.848,0,0,1,.681.972,8.848,8.848,0,0,0,.681.972l4.084,2.334q2.917.681,5.445,1.167t4.862,1.118a47.972,47.972,0,0,1,4.619,1.507,38.752,38.752,0,0,1,4.91,2.334,8.12,8.12,0,0,1,2.334,1.993q.972,1.215,1.848,2.285a11.964,11.964,0,0,1,2.285,4.181,16.2,16.2,0,0,1,.729,4.862,17.717,17.717,0,0,1-1.361,6.807,13.953,13.953,0,0,1-3.89,5.445,18.055,18.055,0,0,1-1.8,1.41q-.924.632-1.8,1.215a15.38,15.38,0,0,1-4.57,2.042,20.491,20.491,0,0,1-5.348.681A29.524,29.524,0,0,1,22.7,1.507,34.6,34.6,0,0,1,16.433-.535,32.505,32.505,0,0,1,10.891-3.6,22.323,22.323,0,0,1,6.612-7.39Z" transform="translate(186 731)" fill="#fff"/>
    <path id="Trazado_2874" data-name="Trazado 2874" d="M20.41-6.076a2.542,2.542,0,0,1,1.87-.1,2.035,2.035,0,0,1,1.117.987,2.032,2.032,0,0,1,.1,1.506,2.418,2.418,0,0,1-1.22,1.4A33.214,33.214,0,0,1,18.592-.467a16.9,16.9,0,0,1-4,1.143,12.392,12.392,0,0,1-4-.026A9.5,9.5,0,0,1,6.8-.935,9.544,9.544,0,0,1,3.48-5.012a13.674,13.674,0,0,1-1.194-5.349A13.191,13.191,0,0,1,3.3-15.71a9.111,9.111,0,0,1,3.35-4.129,18.234,18.234,0,0,1,5.193-2.415,11.4,11.4,0,0,1,5.661-.182,5.638,5.638,0,0,1,2.545,1.324,8.278,8.278,0,0,1,1.844,2.337,6.4,6.4,0,0,1,.753,2.8,4.959,4.959,0,0,1-.727,2.778,7.408,7.408,0,0,1-2.545,2.467A19.8,19.8,0,0,1,15.762-9.01a36.963,36.963,0,0,1-3.9,1.169q-1.948.467-3.4.883a2.81,2.81,0,0,1-1.194.052A6.769,6.769,0,0,0,9.582-4.181a5.806,5.806,0,0,0,3.817.909A9.471,9.471,0,0,0,17.06-4.285Q18.9-5.193,20.41-6.076ZM10.283-17.138A6.432,6.432,0,0,0,7.427-14.36a8.031,8.031,0,0,0-.935,3.765,3.372,3.372,0,0,1,.779-.415q.935-.26,1.9-.545t1.948-.545q.623-.156,1.688-.467t2.207-.727a12.789,12.789,0,0,0,2.077-.961,2.915,2.915,0,0,0,1.246-1.22,2.42,2.42,0,0,0-.831-2.337,3.932,3.932,0,0,0-2.233-.623,8.981,8.981,0,0,0-2.7.441A18.669,18.669,0,0,0,10.283-17.138Z" transform="translate(232 693)" fill="#fff"/>
    <path id="Trazado_2875" data-name="Trazado 2875" d="M4.59-29.909A4.34,4.34,0,0,1,5.775-32.13a2.676,2.676,0,0,1,1.851-.74,2.893,2.893,0,0,1,1.814.666,3.738,3.738,0,0,1,1.222,2.073v.666a10.994,10.994,0,0,1,3.887-2.184,13.848,13.848,0,0,1,4.257-.7,11.691,11.691,0,0,1,5.367,1.259A14.094,14.094,0,0,1,28.5-27.688a15.884,15.884,0,0,1,2.887,5,17.736,17.736,0,0,1,1.036,6.108,17.887,17.887,0,0,1-1.148,6.515A14.091,14.091,0,0,1,27.91-4.96,15.629,15.629,0,0,1,22.4-1.592,21.992,21.992,0,0,1,14.733-.37Q13.7-.37,12.7-.444T10.661-.666V14.955a3.523,3.523,0,0,1-1,2.554,2.945,2.945,0,0,1-2.036.851A2.869,2.869,0,0,1,5.7,17.583a3.741,3.741,0,0,1-1.11-2.406ZM11.4-21.544a1.909,1.909,0,0,1-.37.407q-.222.185-.37.333V-6.811q1.036.222,2.036.37a13.874,13.874,0,0,0,2.036.148A15.665,15.665,0,0,0,19.4-6.959a11.414,11.414,0,0,0,3.739-1.925,8.72,8.72,0,0,0,2.48-3.109,9.635,9.635,0,0,0,.888-4.22,12.218,12.218,0,0,0-.555-3.591A12.265,12.265,0,0,0,24.394-23.1,9.045,9.045,0,0,0,22.062-25.5,5.075,5.075,0,0,0,19.1-26.43a6.319,6.319,0,0,0-2.369.444,9.443,9.443,0,0,0-2.073,1.148,13.365,13.365,0,0,0-1.777,1.555A19.1,19.1,0,0,0,11.4-21.544Z" transform="translate(232 729)" fill="#fff"/>
    <path id="Trazado_2876" data-name="Trazado 2876" d="M6.961-1.485a2.209,2.209,0,0,1-.627,1.6A1.846,1.846,0,0,1,5.059.65,1.8,1.8,0,0,1,3.852.162a2.345,2.345,0,0,1-.7-1.508q-.046-4.362-.07-8.91t-.07-8.91a2.72,2.72,0,0,1,.743-1.392,1.678,1.678,0,0,1,1.16-.464,1.814,1.814,0,0,1,1.137.418,2.343,2.343,0,0,1,.766,1.3q.046,4.362.07,8.91T6.961-1.485ZM2.692-26.731a2.5,2.5,0,0,1,.65-1.74,2.049,2.049,0,0,1,1.578-.719,2.119,2.119,0,0,1,1.6.719,2.456,2.456,0,0,1,.673,1.74,2.4,2.4,0,0,1-.673,1.694,2.119,2.119,0,0,1-1.6.719,2.049,2.049,0,0,1-1.578-.719A2.445,2.445,0,0,1,2.692-26.731Z" transform="translate(273 715)" fill="#fff"/>
    <path id="Trazado_2877" data-name="Trazado 2877" d="M17.452-16.456a.339.339,0,0,1,.059-.234,1.523,1.523,0,0,1-.059-.469V-17.8a4.842,4.842,0,0,0-2.225-2.635,7.448,7.448,0,0,0-3.338-.878,9.074,9.074,0,0,0-2.46,1.23L8.2-18.506a2.251,2.251,0,0,1-.351.381,4.119,4.119,0,0,1-.351.264v16.1A2.787,2.787,0,0,1,6.706.264,2.33,2.33,0,0,1,5.1.937,2.27,2.27,0,0,1,3.572.322a2.96,2.96,0,0,1-.878-1.9V-24.245a3.256,3.256,0,0,1,.937-1.728A2.178,2.178,0,0,1,5.1-26.529a2.3,2.3,0,0,1,1.376.5,2.771,2.771,0,0,1,.966,1.552,12.712,12.712,0,0,1,2.255-1.2,7.079,7.079,0,0,1,2.782-.556,9.685,9.685,0,0,1,4.3,1.083,10.522,10.522,0,0,1,3.543,2.723q.644-.644,1.376-1.318a13.414,13.414,0,0,1,1.552-1.23,10.351,10.351,0,0,1,1.7-.937A4.388,4.388,0,0,1,26.7-26.3a10.743,10.743,0,0,1,3.572.615,10.775,10.775,0,0,1,3.133,1.7,9.074,9.074,0,0,1,2.225,2.518,5.833,5.833,0,0,1,.849,3.016.408.408,0,0,1-.029.176.408.408,0,0,0-.029.176.169.169,0,0,1,.059.117.169.169,0,0,0,.059.117V-1.991a2.787,2.787,0,0,1-.791,2.02A2.33,2.33,0,0,1,34.143.7,2.27,2.27,0,0,1,32.62.088a2.96,2.96,0,0,1-.878-1.9V-17.862a4.5,4.5,0,0,0-1.991-2.782,5.6,5.6,0,0,0-2.694-.732,5.124,5.124,0,0,0-2.752.761,5.617,5.617,0,0,0-2.05,2.811V-2.05a2.787,2.787,0,0,1-.791,2.02,2.33,2.33,0,0,1-1.61.673A2.27,2.27,0,0,1,18.33.029a2.96,2.96,0,0,1-.878-1.9Z" transform="translate(262 746)" fill="#fff"/>
    <path id="Trazado_2878" data-name="Trazado 2878" d="M8.972-27.227a3.909,3.909,0,0,1-2.514-1.16A3,3,0,0,1,5.646-30.4a3.272,3.272,0,0,1,.89-2.127A3.311,3.311,0,0,1,9.2-33.569h4.331V-45.79a4.534,4.534,0,0,1,1.238-2.32,2.8,2.8,0,0,1,1.934-.773,3.022,3.022,0,0,1,1.9.7,3.9,3.9,0,0,1,1.276,2.166v12.453H27.3a3.9,3.9,0,0,1,2.166,1.276,3.023,3.023,0,0,1,.7,1.9,2.8,2.8,0,0,1-.773,1.934,4.534,4.534,0,0,1-2.32,1.238H19.878q-.077,5.956,0,12.26t.077,12.26A3.311,3.311,0,0,1,18.912-.039a3.272,3.272,0,0,1-2.127.89A3,3,0,0,1,14.773.039a3.909,3.909,0,0,1-1.16-2.514q0-6.033-.039-12.376t-.039-12.376Z" transform="translate(253 709)" fill="#fff"/>
    <path id="Trazado_2879" data-name="Trazado 2879" d="M17.37-5.171a2.164,2.164,0,0,1,1.591-.088,1.732,1.732,0,0,1,.95.84A1.73,1.73,0,0,1,20-3.138a2.058,2.058,0,0,1-1.039,1.193A28.267,28.267,0,0,1,15.823-.4a14.383,14.383,0,0,1-3.4.972,10.546,10.546,0,0,1-3.4-.022A8.085,8.085,0,0,1,5.79-.8a8.122,8.122,0,0,1-2.829-3.47A11.638,11.638,0,0,1,1.945-8.818a11.226,11.226,0,0,1,.862-4.552,7.754,7.754,0,0,1,2.851-3.514,15.518,15.518,0,0,1,4.42-2.055,9.7,9.7,0,0,1,4.818-.155,4.8,4.8,0,0,1,2.166,1.127,7.045,7.045,0,0,1,1.569,1.989,5.447,5.447,0,0,1,.641,2.387,4.22,4.22,0,0,1-.619,2.365,6.305,6.305,0,0,1-2.166,2.1,16.855,16.855,0,0,1-3.072,1.459,31.458,31.458,0,0,1-3.315.994q-1.657.4-2.9.751a2.391,2.391,0,0,1-1.017.044,5.761,5.761,0,0,0,1.967,2.32,4.941,4.941,0,0,0,3.249.773,8.06,8.06,0,0,0,3.116-.862Q16.088-4.42,17.37-5.171ZM8.751-14.586A5.474,5.474,0,0,0,6.32-12.221a6.835,6.835,0,0,0-.8,3.2,2.87,2.87,0,0,1,.663-.354q.8-.221,1.613-.464T9.459-10.3q.53-.133,1.436-.4t1.878-.619a10.884,10.884,0,0,0,1.768-.818A2.481,2.481,0,0,0,15.6-13.171,2.059,2.059,0,0,0,14.9-15.16a3.347,3.347,0,0,0-1.9-.53,7.643,7.643,0,0,0-2.3.376A15.889,15.889,0,0,0,8.751-14.586Z" transform="translate(280 713)" fill="#fff"/>
    <path id="Trazado_2880" data-name="Trazado 2880" d="M5.645-.69a2.274,2.274,0,0,1-1.379.366A1.641,1.641,0,0,1,3.232-.776,1.641,1.641,0,0,1,2.78-1.81a2.274,2.274,0,0,1,.366-1.379l.129-.129V-25.727a2.2,2.2,0,0,1,.668-1.25,1.669,1.669,0,0,1,1.034-.452,1.631,1.631,0,0,1,1.056.366,2.327,2.327,0,0,1,.776,1.207V-15.6a7.863,7.863,0,0,1,2.025-1.422,8.135,8.135,0,0,1,1.875-.8,13.943,13.943,0,0,1,2-.366,4.019,4.019,0,0,1,2.112.215,13.426,13.426,0,0,1,1.939.948A4.778,4.778,0,0,1,18.66-15a10.016,10.016,0,0,1,.9,2.78A15.083,15.083,0,0,1,19.78-9.2a18.667,18.667,0,0,1-.259,2.736,4.2,4.2,0,0,1-.388,1.314q-.3.625-.646,1.228A6.148,6.148,0,0,1,16.85-1.875,8.563,8.563,0,0,1,14.544-.539a11.813,11.813,0,0,1-2.629.69A12.061,12.061,0,0,1,9.351.259a13.066,13.066,0,0,1-1.9-.3A6.232,6.232,0,0,1,5.688-.776.124.124,0,0,1,5.645-.69Zm1.164-9.567v6.033a5.061,5.061,0,0,0,.474.259.675.675,0,0,0,.172.129.675.675,0,0,1,.172.129,6.684,6.684,0,0,0,4.266.3,7.217,7.217,0,0,0,3.577-2.37A11.376,11.376,0,0,0,16.1-7.692a8.219,8.219,0,0,0,.194-1.767,9.542,9.542,0,0,0-.172-1.788,11.9,11.9,0,0,0-.56-1.939,2.663,2.663,0,0,1-.366-.452,2.663,2.663,0,0,0-.366-.452,2.228,2.228,0,0,1-.409-.215,2.228,2.228,0,0,0-.409-.215q-.215-.043-.474-.086t-.474-.086a7.332,7.332,0,0,0-3.4,1.4,12.973,12.973,0,0,0-2.5,2.693Z" transform="translate(300 690)" fill="#fff"/>
    <path id="Trazado_2881" data-name="Trazado 2881" d="M17.37-5.171a2.164,2.164,0,0,1,1.591-.088,1.732,1.732,0,0,1,.95.84A1.73,1.73,0,0,1,20-3.138a2.058,2.058,0,0,1-1.039,1.193A28.267,28.267,0,0,1,15.823-.4a14.383,14.383,0,0,1-3.4.972,10.546,10.546,0,0,1-3.4-.022A8.085,8.085,0,0,1,5.79-.8a8.122,8.122,0,0,1-2.829-3.47A11.638,11.638,0,0,1,1.945-8.818a11.226,11.226,0,0,1,.862-4.552,7.754,7.754,0,0,1,2.851-3.514,15.518,15.518,0,0,1,4.42-2.055,9.7,9.7,0,0,1,4.818-.155,4.8,4.8,0,0,1,2.166,1.127,7.045,7.045,0,0,1,1.569,1.989,5.447,5.447,0,0,1,.641,2.387,4.22,4.22,0,0,1-.619,2.365,6.305,6.305,0,0,1-2.166,2.1,16.855,16.855,0,0,1-3.072,1.459,31.458,31.458,0,0,1-3.315.994q-1.657.4-2.9.751a2.391,2.391,0,0,1-1.017.044,5.761,5.761,0,0,0,1.967,2.32,4.941,4.941,0,0,0,3.249.773,8.06,8.06,0,0,0,3.116-.862Q16.088-4.42,17.37-5.171ZM8.751-14.586A5.474,5.474,0,0,0,6.32-12.221a6.835,6.835,0,0,0-.8,3.2,2.87,2.87,0,0,1,.663-.354q.8-.221,1.613-.464T9.459-10.3q.53-.133,1.436-.4t1.878-.619a10.884,10.884,0,0,0,1.768-.818A2.481,2.481,0,0,0,15.6-13.171,2.059,2.059,0,0,0,14.9-15.16a3.347,3.347,0,0,0-1.9-.53,7.643,7.643,0,0,0-2.3.376A15.889,15.889,0,0,0,8.751-14.586Z" transform="translate(301 735)" fill="#fff"/>
    <path id="Trazado_2882" data-name="Trazado 2882" d="M3.149-14.612a2.394,2.394,0,0,1-.924-.8,1.709,1.709,0,0,1-.294-.924,1.563,1.563,0,0,1,.462-1.113,1.661,1.661,0,0,1,1.26-.483,3.6,3.6,0,0,1,1.47.42,4.965,4.965,0,0,1,1.386.924A14.575,14.575,0,0,1,9.2-18.391a6.083,6.083,0,0,1,2.813-.714,5.223,5.223,0,0,1,1.218.21,7.116,7.116,0,0,1,1.575.63,4.891,4.891,0,0,1,1.365,1.092,2.289,2.289,0,0,1,.588,1.554,1.523,1.523,0,0,1-.462,1.155,1.58,1.58,0,0,1-1.134.441,1.311,1.311,0,0,1-.819-.273q-.357-.273-.714-.588a5.914,5.914,0,0,0-.756-.567,1.655,1.655,0,0,0-.9-.252,2.825,2.825,0,0,0-1.281.357,10.667,10.667,0,0,0-1.386.861,14.038,14.038,0,0,0-1.323,1.092q-.63.588-1.092,1.05V-1.176A2,2,0,0,1,6.319.273,1.67,1.67,0,0,1,5.165.756,1.627,1.627,0,0,1,4.073.315a2.122,2.122,0,0,1-.63-1.365V-12.513a.973.973,0,0,0-.021-.189.973.973,0,0,1-.021-.189.973.973,0,0,1,.021-.189.973.973,0,0,0,.021-.189v-1.218A2.3,2.3,0,0,0,3.149-14.612Z" transform="translate(301 713)" fill="#fff"/>
  </g>
</svg>
